<svg width="229" height="30" viewBox="0 0 229 30" fill="none" xmlns="http://www.w3.org/2000/svg">
<g id="Final Logo 1" clip-path="url(#clip0_1728_343)">
<g id="Clip path group">
<mask id="mask0_1728_343" style="mask-type:luminance" maskUnits="userSpaceOnUse" x="0" y="0" width="229" height="30">
<g id="clip0_380_2594">
<path id="Vector" d="M228.667 0H0V30H228.667V0Z" fill="white"/>
</g>
</mask>
<g mask="url(#mask0_1728_343)">
<g id="Group">
<path id="Vector_2" fill-rule="evenodd" clip-rule="evenodd" d="M47.1545 28.6196C47.0121 28.6522 46.8621 28.6686 46.7045 28.6686C46.1863 28.6686 45.7505 28.4919 45.3972 28.1385C45.0439 27.7852 44.8672 27.3495 44.8672 26.8312V2.91057C44.8672 2.3688 45.0439 1.93302 45.3972 1.60324C45.6345 1.36595 45.909 1.20833 46.2207 1.1304C45.9087 1.20827 45.6339 1.36594 45.3964 1.60344C45.0431 1.93321 44.8664 2.36899 44.8664 2.91077V26.8314C44.8664 27.3497 45.0431 27.7854 45.3964 28.1388C45.7497 28.4921 46.1855 28.6688 46.7037 28.6688C46.8617 28.6688 47.0119 28.6524 47.1545 28.6196ZM58.8162 23.0688L58.8165 23.0694L69.0353 2.06257C69.322 1.56031 69.7047 1.24929 70.1833 1.12951C69.7047 1.24915 69.3213 1.56024 69.0347 2.06277L58.8162 23.0688ZM71.1113 28.615C70.968 28.6507 70.818 28.6686 70.6607 28.6686C70.142 28.6686 69.7067 28.4919 69.3533 28.1385C69 27.7852 68.8233 27.3495 68.8233 26.8312V9.26222L68.8227 9.26382V26.8314C68.8227 27.3497 68.9993 27.7854 69.3527 28.1388C69.706 28.4921 70.1413 28.6688 70.66 28.6688C70.8173 28.6688 70.968 28.6508 71.1113 28.615ZM48.5634 9.63442L48.5419 9.59302V9.59129L48.5634 9.63442ZM49.3411 26.8314V12.9862L56.2679 26.1999C56.4951 26.6678 56.8131 27.0642 57.2407 27.3403C57.6718 27.6188 58.1635 27.7421 58.6817 27.7421C59.6445 27.7421 60.4122 27.2705 60.9413 26.4612L60.9683 26.42L68.0227 12.7092V26.8314C68.0227 27.553 68.2773 28.195 68.7867 28.7045C69.296 29.214 69.938 29.4688 70.66 29.4688C71.3647 29.4688 71.988 29.2093 72.488 28.7136C73.0207 28.2098 73.2973 27.5658 73.2973 26.8314V2.91077C73.2973 2.18154 73.052 1.52713 72.5233 1.02813C72.0153 0.525077 71.3767 0.273438 70.66 0.273438C69.6407 0.273438 68.846 0.779893 68.34 1.66586L68.3267 1.68893L58.8065 21.2599L49.0348 1.68536L49.0237 1.66586C48.5174 0.779893 47.7229 0.273438 46.7037 0.273438C45.9867 0.273438 45.3483 0.525077 44.8404 1.02812C44.3115 1.52711 44.0664 2.18153 44.0664 2.91077V26.8314C44.0664 27.553 44.3213 28.195 44.8307 28.7045C45.3402 29.214 45.9821 29.4688 46.7037 29.4688C47.4253 29.4688 48.0673 29.214 48.5767 28.7045C49.0862 28.195 49.3411 27.553 49.3411 26.8314Z" fill="#0177FB"/>
<path id="Vector_3" d="M148.038 28.6695C147.52 28.6695 147.084 28.4929 146.73 28.1395C146.377 27.7862 146.2 27.3504 146.2 26.8322V2.91155C146.2 2.36977 146.377 1.93399 146.73 1.60422C147.084 1.25089 147.52 1.07422 148.038 1.07422C148.58 1.07422 149.015 1.25089 149.345 1.60422C149.698 1.93399 149.875 2.36977 149.875 2.91155V13.0522H166.27V2.91155C166.27 2.36977 166.446 1.93399 166.8 1.60422C167.153 1.25089 167.589 1.07422 168.107 1.07422C168.649 1.07422 169.084 1.25089 169.414 1.60422C169.744 1.93399 169.909 2.36977 169.909 2.91155V26.8322C169.909 27.3504 169.744 27.7862 169.414 28.1395C169.084 28.4929 168.649 28.6695 168.107 28.6695C167.589 28.6695 167.153 28.4929 166.8 28.1395C166.446 27.7862 166.27 27.3504 166.27 26.8322V16.3029H149.875V26.8322C149.875 27.3504 149.698 27.7862 149.345 28.1395C149.015 28.4929 148.58 28.6695 148.038 28.6695ZM179.17 28.6695C178.652 28.6695 178.216 28.4929 177.862 28.1395C177.509 27.7862 177.332 27.3504 177.332 26.8322V2.91155C177.332 2.36977 177.509 1.93399 177.862 1.60422C178.216 1.25089 178.652 1.07422 179.17 1.07422H185.53C187.296 1.07422 188.863 1.45111 190.229 2.20489C191.595 2.93511 192.655 3.94799 193.409 5.24355C194.186 6.53909 194.575 8.04667 194.575 9.7662C194.575 11.368 194.186 12.7931 193.409 14.0415C192.655 15.29 191.595 16.2675 190.229 16.9742C188.863 17.6809 187.296 18.0342 185.53 18.0342H181.007V26.8322C181.007 27.3504 180.83 27.7862 180.477 28.1395C180.147 28.4929 179.712 28.6695 179.17 28.6695ZM193.833 28.6695C193.503 28.6695 193.197 28.5989 192.914 28.4575C192.655 28.3162 192.432 28.0924 192.243 27.7862L185.883 17.5395L189.452 16.5149L195.246 25.8429C195.67 26.526 195.729 27.1737 195.423 27.7862C195.117 28.3751 194.587 28.6695 193.833 28.6695ZM181.007 14.6422H185.53C186.613 14.6422 187.567 14.442 188.392 14.0415C189.216 13.6175 189.864 13.0404 190.335 12.3102C190.806 11.5564 191.042 10.7084 191.042 9.7662C191.042 8.72973 190.806 7.81107 190.335 7.0102C189.864 6.20935 189.216 5.58509 188.392 5.13755C187.567 4.69002 186.613 4.46622 185.53 4.46622H181.007V14.6422ZM201.848 28.6695C201.33 28.6695 200.894 28.4929 200.54 28.1395C200.187 27.7862 200.01 27.3504 200.01 26.8322V2.91155C200.01 2.36977 200.187 1.93399 200.54 1.60422C200.894 1.25089 201.33 1.07422 201.848 1.07422C202.554 1.07422 203.096 1.404 203.473 2.06355L214.532 24.2175H213.402L224.178 2.06355C224.556 1.404 225.097 1.07422 225.804 1.07422C226.322 1.07422 226.758 1.25089 227.111 1.60422C227.464 1.93399 227.641 2.36977 227.641 2.91155V26.8322C227.641 27.3504 227.453 27.7862 227.076 28.1395C226.722 28.4929 226.298 28.6695 225.804 28.6695C225.286 28.6695 224.85 28.4929 224.496 28.1395C224.143 27.7862 223.966 27.3504 223.966 26.8322V7.99953L224.673 7.82287L215.416 26.6909C215.016 27.3033 214.486 27.6095 213.826 27.6095C213.048 27.6095 212.483 27.2444 212.13 26.5142L202.978 8.1762L203.685 7.99953V26.8322C203.685 27.3504 203.508 27.7862 203.155 28.1395C202.802 28.4929 202.366 28.6695 201.848 28.6695Z" fill="#F5AF19"/>
<path id="Vector_4" d="M146.73 1.60344L147.276 2.18828L147.286 2.17887L147.296 2.16913L146.73 1.60344ZM149.345 1.60344L148.76 2.14929L148.779 2.16946L148.799 2.18828L149.345 1.60344ZM149.875 13.0514H149.075V13.8514H149.875V13.0514ZM166.27 13.0514V13.8514H167.07V13.0514H166.27ZM166.8 1.60344L167.346 2.18828L167.356 2.17887L167.366 2.16913L166.8 1.60344ZM169.414 1.60344L168.83 2.14929L168.839 2.15937L168.848 2.16913L169.414 1.60344ZM166.27 16.3021H167.07V15.5021H166.27V16.3021ZM149.875 16.3021V15.5021H149.075V16.3021H149.875ZM149.345 28.1388L148.779 27.5731L148.77 27.5828L148.76 27.5929L149.345 28.1388ZM148.038 27.8688C147.723 27.8688 147.493 27.7703 147.296 27.5731L146.164 28.7044C146.674 29.2139 147.316 29.4688 148.038 29.4688V27.8688ZM147.296 27.5731C147.099 27.3759 147 27.1463 147 26.8314H145.4C145.4 27.553 145.655 28.195 146.164 28.7044L147.296 27.5731ZM147 26.8314V2.91077H145.4V26.8314H147ZM147 2.91077C147 2.56111 147.106 2.34766 147.276 2.18828L146.184 1.01859C145.648 1.51877 145.4 2.17688 145.4 2.91077H147ZM147.296 2.16913C147.493 1.97192 147.723 1.87344 148.038 1.87344V0.273438C147.316 0.273438 146.674 0.528291 146.164 1.03775L147.296 2.16913ZM148.038 1.87344C148.388 1.87344 148.601 1.97853 148.76 2.14929L149.93 1.05759C149.43 0.521677 148.772 0.273438 148.038 0.273438V1.87344ZM148.799 2.18828C148.97 2.34766 149.075 2.56111 149.075 2.91077H150.675C150.675 2.17688 150.427 1.51877 149.891 1.01859L148.799 2.18828ZM149.075 2.91077V13.0514H150.675V2.91077H149.075ZM149.875 13.8514H166.27V12.2514H149.875V13.8514ZM167.07 13.0514V2.91077H165.47V13.0514H167.07ZM167.07 2.91077C167.07 2.56111 167.175 2.34766 167.346 2.18828L166.254 1.01859C165.718 1.51877 165.47 2.17688 165.47 2.91077H167.07ZM167.366 2.16913C167.562 1.97192 167.792 1.87344 168.107 1.87344V0.273438C167.386 0.273438 166.744 0.528291 166.234 1.03775L167.366 2.16913ZM168.107 1.87344C168.457 1.87344 168.67 1.97853 168.83 2.14929L169.999 1.05759C169.499 0.521677 168.841 0.273438 168.107 0.273438V1.87344ZM168.848 2.16913C169.004 2.32454 169.109 2.54408 169.109 2.91077H170.709C170.709 2.19391 170.484 1.54189 169.98 1.03775L168.848 2.16913ZM169.109 2.91077V26.8314H170.709V2.91077H169.109ZM169.109 26.8314C169.109 27.163 169.01 27.399 168.83 27.5929L169.999 28.6846C170.478 28.1718 170.709 27.5363 170.709 26.8314H169.109ZM168.83 27.5929C168.67 27.7637 168.457 27.8688 168.107 27.8688V29.4688C168.841 29.4688 169.499 29.2205 169.999 28.6846L168.83 27.5929ZM168.107 27.8688C167.792 27.8688 167.562 27.7703 167.366 27.5731L166.234 28.7044C166.744 29.2139 167.386 29.4688 168.107 29.4688V27.8688ZM167.366 27.5731C167.168 27.3759 167.07 27.1463 167.07 26.8314H165.47C165.47 27.553 165.724 28.195 166.234 28.7044L167.366 27.5731ZM167.07 26.8314V16.3021H165.47V26.8314H167.07ZM166.27 15.5021H149.875V17.1021H166.27V15.5021ZM149.075 16.3021V26.8314H150.675V16.3021H149.075ZM149.075 26.8314C149.075 27.1463 148.976 27.3759 148.779 27.5731L149.911 28.7044C150.42 28.195 150.675 27.553 150.675 26.8314H149.075ZM148.76 27.5929C148.601 27.7637 148.387 27.8688 148.038 27.8688V29.4688C148.772 29.4688 149.43 29.2205 149.93 28.6846L148.76 27.5929ZM177.862 1.60344L178.408 2.18828L178.418 2.17887L178.428 2.16913L177.862 1.60344ZM190.229 2.20411L189.842 2.90457L189.847 2.90714L189.852 2.90965L190.229 2.20411ZM193.409 5.24277L192.718 5.64511L192.72 5.64977L192.723 5.65437L193.409 5.24277ZM193.409 14.0408L192.73 13.6179L192.727 13.6226L192.724 13.6273L193.409 14.0408ZM181.007 18.0334V17.2334H180.207V18.0334H181.007ZM180.477 28.1388L179.911 27.5731L179.902 27.5828L179.892 27.5929L180.477 28.1388ZM192.914 28.4568L192.531 29.1591L192.544 29.1659L192.556 29.1723L192.914 28.4568ZM192.243 27.7854L192.924 27.3661L192.923 27.3636L192.243 27.7854ZM185.883 17.5388L185.662 16.7698L184.646 17.0618L185.203 17.9606L185.883 17.5388ZM189.452 16.5141L190.131 16.092L189.812 15.5783L189.231 15.7452L189.452 16.5141ZM195.246 25.8421L195.926 25.4202L195.926 25.42L195.246 25.8421ZM195.423 27.7854L196.133 28.1545L196.136 28.1489L196.138 28.1432L195.423 27.7854ZM181.007 14.6414H180.207V15.4414H181.007V14.6414ZM188.392 14.0408L188.741 14.7604L188.75 14.7564L188.758 14.7522L188.392 14.0408ZM190.335 12.3094L191.007 12.7432L191.01 12.7383L191.014 12.7334L190.335 12.3094ZM181.007 4.46544V3.66544H180.207V4.46544H181.007ZM179.17 27.8688C178.855 27.8688 178.625 27.7703 178.428 27.5731L177.296 28.7044C177.806 29.2139 178.448 29.4688 179.17 29.4688V27.8688ZM178.428 27.5731C178.231 27.3759 178.132 27.1463 178.132 26.8314H176.532C176.532 27.553 176.787 28.195 177.296 28.7044L178.428 27.5731ZM178.132 26.8314V2.91077H176.532V26.8314H178.132ZM178.132 2.91077C178.132 2.56111 178.238 2.34766 178.408 2.18828L177.316 1.01859C176.78 1.51877 176.532 2.17688 176.532 2.91077H178.132ZM178.428 2.16913C178.625 1.97192 178.855 1.87344 179.17 1.87344V0.273438C178.448 0.273438 177.806 0.528291 177.296 1.03775L178.428 2.16913ZM179.17 1.87344H185.53V0.273438H179.17V1.87344ZM185.53 1.87344C187.179 1.87344 188.61 2.22432 189.842 2.90457L190.616 1.50365C189.116 0.67634 187.414 0.273438 185.53 0.273438V1.87344ZM189.852 2.90965C191.092 3.57238 192.041 4.48224 192.718 5.64511L194.1 4.84044C193.27 3.41217 192.098 2.29627 190.606 1.49856L189.852 2.90965ZM192.723 5.65437C193.416 6.80915 193.775 8.17042 193.775 9.76542H195.375C195.375 7.92129 194.957 6.26751 194.095 4.83117L192.723 5.65437ZM193.775 9.76542C193.775 11.2316 193.421 12.5076 192.73 13.6179L194.088 14.4636C194.952 13.077 195.375 11.5028 195.375 9.76542H193.775ZM192.724 13.6273C192.051 14.7422 191.104 15.6202 189.862 16.2628L190.596 17.684C192.086 16.9134 193.26 15.8362 194.094 14.4542L192.724 13.6273ZM189.862 16.2628C188.624 16.9026 187.188 17.2334 185.53 17.2334V18.8334C187.405 18.8334 189.101 18.4576 190.596 17.684L189.862 16.2628ZM185.53 17.2334H181.007V18.8334H185.53V17.2334ZM180.207 18.0334V26.8314H181.807V18.0334H180.207ZM180.207 26.8314C180.207 27.1463 180.108 27.3759 179.911 27.5731L181.042 28.7044C181.552 28.195 181.807 27.553 181.807 26.8314H180.207ZM179.892 27.5929C179.733 27.7637 179.519 27.8688 179.17 27.8688V29.4688C179.904 29.4688 180.562 29.2205 181.062 28.6846L179.892 27.5929ZM193.833 27.8688C193.622 27.8688 193.439 27.8246 193.272 27.7412L192.556 29.1723C192.955 29.3716 193.384 29.4688 193.833 29.4688V27.8688ZM193.298 27.7544C193.185 27.693 193.056 27.5794 192.924 27.3661L191.562 28.2047C191.807 28.6038 192.126 28.9378 192.531 29.1591L193.298 27.7544ZM192.923 27.3636L186.563 17.1169L185.203 17.9606L191.563 28.2073L192.923 27.3636ZM186.104 18.3077L189.672 17.283L189.231 15.7452L185.662 16.7698L186.104 18.3077ZM188.772 16.9362L194.567 26.2642L195.926 25.42L190.131 16.092L188.772 16.9362ZM194.566 26.264C194.874 26.7594 194.866 27.1106 194.708 27.4276L196.138 28.1432C196.592 27.2354 196.466 26.2911 195.926 25.4202L194.566 26.264ZM194.713 27.4164C194.626 27.5854 194.522 27.6848 194.407 27.7486C194.287 27.8155 194.106 27.8688 193.833 27.8688V29.4688C194.313 29.4688 194.775 29.3747 195.184 29.1472C195.6 28.9166 195.914 28.5744 196.133 28.1545L194.713 27.4164ZM181.007 15.4414H185.53V13.8414H181.007V15.4414ZM185.53 15.4414C186.712 15.4414 187.79 15.2225 188.741 14.7604L188.042 13.3212C187.345 13.6599 186.514 13.8414 185.53 13.8414V15.4414ZM188.758 14.7522C189.698 14.2685 190.455 13.5991 191.007 12.7432L189.663 11.8757C189.273 12.4802 188.734 12.965 188.026 13.3294L188.758 14.7522ZM191.014 12.7334C191.569 11.8448 191.842 10.8482 191.842 9.76542H190.242C190.242 10.5671 190.044 11.2666 189.656 11.8854L191.014 12.7334ZM191.842 9.76542C191.842 8.60322 191.576 7.54142 191.024 6.60384L189.646 7.41502C190.036 8.07922 190.242 8.85475 190.242 9.76542H191.842ZM191.024 6.60384C190.479 5.67637 189.724 4.94991 188.773 4.43371L188.01 5.83984C188.708 6.21877 189.249 6.74069 189.646 7.41502L191.024 6.60384ZM188.773 4.43371C187.815 3.91329 186.726 3.66544 185.53 3.66544V5.26544C186.501 5.26544 187.32 5.46517 188.01 5.83984L188.773 4.43371ZM185.53 3.66544H181.007V5.26544H185.53V3.66544ZM180.207 4.46544V14.6414H181.807V4.46544H180.207ZM200.54 1.60344L201.086 2.18828L201.096 2.17887L201.106 2.16913L200.54 1.60344ZM203.473 2.06277L204.189 1.70546L204.179 1.68536L204.168 1.66586L203.473 2.06277ZM214.532 24.2168V25.0168H215.826L215.248 23.8594L214.532 24.2168ZM213.402 24.2168L212.682 23.8668L212.123 25.0168H213.402V24.2168ZM224.178 2.06277L223.484 1.66586L223.471 1.68893L223.459 1.71283L224.178 2.06277ZM227.111 1.60344L226.546 2.16913L226.555 2.17887L226.565 2.18828L227.111 1.60344ZM227.076 28.1388L226.529 27.5552L226.519 27.5639L226.51 27.5731L227.076 28.1388ZM223.966 7.99875L223.772 7.22262L223.166 7.37415V7.99875H223.966ZM224.673 7.82209L225.392 8.17449L226.15 6.62831L224.479 7.04595L224.673 7.82209ZM215.416 26.6901L216.086 27.1279L216.112 27.0867L216.134 27.0425L215.416 26.6901ZM212.13 26.5134L212.85 26.165L212.848 26.1606L212.846 26.1562L212.13 26.5134ZM202.978 8.17542L202.784 7.39929L201.818 7.64102L202.263 8.53262L202.978 8.17542ZM203.685 7.99875H204.485V6.97415L203.491 7.22262L203.685 7.99875ZM201.848 27.8688C201.533 27.8688 201.304 27.7703 201.106 27.5731L199.975 28.7044C200.484 29.2139 201.126 29.4688 201.848 29.4688V27.8688ZM201.106 27.5731C200.909 27.3759 200.81 27.1463 200.81 26.8314H199.21C199.21 27.553 199.466 28.195 199.975 28.7044L201.106 27.5731ZM200.81 26.8314V2.91077H199.21V26.8314H200.81ZM200.81 2.91077C200.81 2.56111 200.916 2.34766 201.086 2.18828L199.994 1.01859C199.459 1.51877 199.21 2.17688 199.21 2.91077H200.81ZM201.106 2.16913C201.304 1.97192 201.533 1.87344 201.848 1.87344V0.273438C201.126 0.273438 200.484 0.528291 199.975 1.03775L201.106 2.16913ZM201.848 1.87344C202.242 1.87344 202.531 2.02654 202.778 2.45969L204.168 1.66586C203.662 0.779899 202.867 0.273438 201.848 0.273438V1.87344ZM202.758 2.42009L213.817 24.5741L215.248 23.8594L204.189 1.70546L202.758 2.42009ZM214.532 23.4168H213.402V25.0168H214.532V23.4168ZM214.121 24.5667L224.898 2.41272L223.459 1.71283L212.682 23.8668L214.121 24.5667ZM224.873 2.45969C225.12 2.02654 225.41 1.87344 225.804 1.87344V0.273438C224.785 0.273438 223.99 0.779899 223.484 1.66586L224.873 2.45969ZM225.804 1.87344C226.119 1.87344 226.348 1.97192 226.546 2.16913L227.677 1.03775C227.168 0.528291 226.526 0.273438 225.804 0.273438V1.87344ZM226.565 2.18828C226.736 2.34766 226.841 2.56111 226.841 2.91077H228.441C228.441 2.17688 228.193 1.51877 227.657 1.01859L226.565 2.18828ZM226.841 2.91077V26.8314H228.441V2.91077H226.841ZM226.841 26.8314C226.841 27.1293 226.744 27.3536 226.529 27.5552L227.623 28.7224C228.162 28.2173 228.441 27.57 228.441 26.8314H226.841ZM226.51 27.5731C226.305 27.7781 226.084 27.8688 225.804 27.8688V29.4688C226.513 29.4688 227.14 29.2061 227.642 28.7044L226.51 27.5731ZM225.804 27.8688C225.489 27.8688 225.26 27.7703 225.062 27.5731L223.931 28.7044C224.44 29.2139 225.082 29.4688 225.804 29.4688V27.8688ZM225.062 27.5731C224.865 27.3759 224.766 27.1463 224.766 26.8314H223.166C223.166 27.553 223.422 28.195 223.931 28.7044L225.062 27.5731ZM224.766 26.8314V7.99875H223.166V26.8314H224.766ZM224.16 8.77489L224.867 8.59822L224.479 7.04595L223.772 7.22262L224.16 8.77489ZM223.955 7.46969L214.698 26.3377L216.134 27.0425L225.392 8.17449L223.955 7.46969ZM214.746 26.2523C214.474 26.668 214.182 26.8088 213.826 26.8088V28.4088C214.788 28.4088 215.556 27.9371 216.086 27.1279L214.746 26.2523ZM213.826 26.8088C213.567 26.8088 213.387 26.7496 213.253 26.6629C213.116 26.5749 212.976 26.4253 212.85 26.165L211.41 26.8619C211.637 27.3318 211.956 27.7298 212.385 28.007C212.816 28.2854 213.308 28.4088 213.826 28.4088V26.8088ZM212.846 26.1562L203.694 7.81822L202.263 8.53262L211.414 26.8706L212.846 26.1562ZM203.172 8.95155L203.879 8.77489L203.491 7.22262L202.784 7.39929L203.172 8.95155ZM202.885 7.99875V26.8314H204.485V7.99875H202.885ZM202.885 26.8314C202.885 27.1463 202.787 27.3759 202.59 27.5731L203.721 28.7044C204.23 28.195 204.485 27.553 204.485 26.8314H202.885ZM202.59 27.5731C202.392 27.7703 202.163 27.8688 201.848 27.8688V29.4688C202.57 29.4688 203.212 29.2139 203.721 28.7044L202.59 27.5731Z" fill="#F5AF19"/>
<path id="Vector_5" d="M86.6084 29.4774C84.7004 29.4774 83.0164 29.0652 81.5558 28.2407C80.0951 27.3927 78.9411 26.2385 78.0931 24.778C77.2684 23.294 76.8564 21.598 76.8564 19.69C76.8564 17.7585 77.2684 16.0625 78.0931 14.602C78.9411 13.118 80.0951 11.9638 81.5558 11.1394C83.0164 10.2914 84.7004 9.86736 86.6084 9.86736C88.4931 9.86736 90.1651 10.2914 91.6258 11.1394C93.0864 11.9638 94.2284 13.118 95.0531 14.602C95.9011 16.0625 96.3251 17.7585 96.3251 19.69C96.3251 21.598 95.9131 23.294 95.0884 24.778C94.2638 26.2385 93.1218 27.3927 91.6611 28.2407C90.2004 29.0652 88.5164 29.4774 86.6084 29.4774ZM86.6084 26.2974C87.8331 26.2974 88.9171 26.0147 89.8591 25.4494C90.8011 24.884 91.5318 24.1067 92.0498 23.1174C92.5918 22.128 92.8624 20.9856 92.8624 19.69C92.8624 18.3945 92.5918 17.252 92.0498 16.2627C91.5318 15.2498 90.8011 14.4607 89.8591 13.8954C88.9171 13.33 87.8331 13.0474 86.6084 13.0474C85.3838 13.0474 84.2998 13.33 83.3578 13.8954C82.4158 14.4607 81.6738 15.2498 81.1318 16.2627C80.5898 17.252 80.3191 18.3945 80.3191 19.69C80.3191 20.9856 80.5898 22.128 81.1318 23.1174C81.6738 24.1067 82.4158 24.884 83.3578 25.4494C84.2998 26.0147 85.3838 26.2974 86.6084 26.2974ZM109.038 29.4774C107.13 29.4774 105.446 29.0652 103.986 28.2407C102.525 27.3927 101.371 26.2385 100.523 24.778C99.6984 23.294 99.2864 21.598 99.2864 19.69C99.2864 17.7585 99.6984 16.0625 100.523 14.602C101.371 13.118 102.525 11.9638 103.986 11.1394C105.446 10.2914 107.13 9.86736 109.038 9.86736C110.922 9.86736 112.595 10.2914 114.056 11.1394C115.516 11.9638 116.658 13.118 117.483 14.602C118.331 16.0625 118.755 17.7585 118.755 19.69C118.755 21.598 118.342 23.294 117.518 24.778C116.694 26.2385 115.551 27.3927 114.091 28.2407C112.63 29.0652 110.946 29.4774 109.038 29.4774ZM109.038 26.2974C110.263 26.2974 111.346 26.0147 112.289 25.4494C113.231 24.884 113.961 24.1067 114.48 23.1174C115.021 22.128 115.292 20.9856 115.292 19.69C115.292 18.3945 115.021 17.252 114.48 16.2627C113.961 15.2498 113.231 14.4607 112.289 13.8954C111.346 13.33 110.263 13.0474 109.038 13.0474C107.813 13.0474 106.73 13.33 105.788 13.8954C104.845 14.4607 104.103 15.2498 103.562 16.2627C103.02 17.252 102.749 18.3945 102.749 19.69C102.749 20.9856 103.02 22.128 103.562 23.1174C104.103 24.1067 104.845 24.884 105.788 25.4494C106.73 26.0147 107.813 26.2974 109.038 26.2974ZM139.029 29.3714C138.511 29.3714 138.075 29.2065 137.722 28.8767C137.392 28.5234 137.227 28.0876 137.227 27.5694V18.8774C137.227 17.5347 136.98 16.4394 136.485 15.5914C135.99 14.7434 135.319 14.1192 134.471 13.7187C133.647 13.2947 132.693 13.0827 131.609 13.0827C130.62 13.0827 129.725 13.2829 128.924 13.6834C128.123 14.0838 127.487 14.6256 127.016 15.3087C126.545 15.9682 126.309 16.7338 126.309 17.6054H124.083C124.083 16.1214 124.436 14.8022 125.143 13.648C125.874 12.4702 126.863 11.5398 128.111 10.8567C129.36 10.1736 130.761 9.83203 132.316 9.83203C133.941 9.83203 135.39 10.1854 136.662 10.892C137.958 11.5752 138.97 12.588 139.7 13.9307C140.454 15.2734 140.831 16.9222 140.831 18.8774V27.5694C140.831 28.0876 140.654 28.5234 140.301 28.8767C139.972 29.2065 139.548 29.3714 139.029 29.3714ZM124.507 29.3714C123.989 29.3714 123.553 29.2065 123.2 28.8767C122.87 28.5234 122.705 28.0876 122.705 27.5694V11.8107C122.705 11.2689 122.87 10.8332 123.2 10.5034C123.553 10.1736 123.989 10.0087 124.507 10.0087C125.049 10.0087 125.485 10.1736 125.814 10.5034C126.144 10.8332 126.309 11.2689 126.309 11.8107V27.5694C126.309 28.0876 126.144 28.5234 125.814 28.8767C125.485 29.2065 125.049 29.3714 124.507 29.3714Z" fill="#0177FB"/>
<path id="Vector_6" d="M81.5561 28.2381L81.3888 28.5264L81.3921 28.5284L81.5561 28.2381ZM78.0934 24.7754L77.8021 24.9374L77.8054 24.9428L78.0934 24.7754ZM78.0934 14.5994L77.8041 14.434L77.8034 14.4356L78.0934 14.5994ZM81.5561 11.1368L81.7201 11.427L81.7234 11.425L81.5561 11.1368ZM91.6261 11.1368L91.4588 11.425L91.4621 11.427L91.6261 11.1368ZM95.0534 14.5994L94.7621 14.7614L94.7654 14.7668L95.0534 14.5994ZM95.0888 24.7754L95.3788 24.9393L95.3801 24.9373L95.0888 24.7754ZM91.6614 28.2381L91.8254 28.5284L91.8288 28.5264L91.6614 28.2381ZM92.0501 23.1148L91.7574 22.9546L91.7548 22.9601L92.0501 23.1148ZM92.0501 16.2601L91.7534 16.412L91.7574 16.4202L92.0501 16.2601ZM81.1321 16.2601L81.4248 16.4202L81.4261 16.4173L81.1321 16.2601ZM86.6088 29.1414C84.7501 29.1414 83.1241 28.7404 81.7201 27.9478L81.3921 28.5284C82.9094 29.3848 84.6514 29.8081 86.6088 29.8081V29.1414ZM81.7234 27.9498C80.3134 27.131 79.2008 26.0184 78.3814 24.608L77.8054 24.9428C78.6821 26.4534 79.8781 27.6492 81.3888 28.5264L81.7234 27.9498ZM78.3848 24.6136C77.5914 23.185 77.1901 21.5459 77.1901 19.6874H76.5234C76.5234 21.645 76.9468 23.398 77.8021 24.9374L78.3848 24.6136ZM77.1901 19.6874C77.1901 17.8045 77.5914 16.1666 78.3834 14.7633L77.8034 14.4356C76.9468 15.9532 76.5234 17.7073 76.5234 19.6874H77.1901ZM78.3828 14.7648C79.2014 13.332 80.3128 12.2214 81.7201 11.427L81.3921 10.8465C79.8781 11.7011 78.6814 12.8989 77.8041 14.434L78.3828 14.7648ZM81.7234 11.425C83.1268 10.6102 84.7521 10.1981 86.6088 10.1981V9.53143C84.6494 9.53143 82.9061 9.96729 81.3888 10.8485L81.7234 11.425ZM86.6088 10.1981C88.4414 10.1981 90.0548 10.6098 91.4588 11.425L91.7934 10.8485C90.2768 9.96769 88.5448 9.53143 86.6088 9.53143V10.1981ZM91.4621 11.427C92.8688 12.2209 93.9668 13.3304 94.7621 14.7614L95.3448 14.4376C94.4908 12.9005 93.3048 11.7016 91.7901 10.8465L91.4621 11.427ZM94.7654 14.7668C95.5794 16.1695 95.9921 17.8061 95.9921 19.6874H96.6588C96.6588 17.7057 96.2234 15.9503 95.3414 14.432L94.7654 14.7668ZM95.9921 19.6874C95.9921 21.5459 95.5908 23.185 94.7974 24.6136L95.3801 24.9373C96.2354 23.3979 96.6588 21.645 96.6588 19.6874H95.9921ZM94.7988 24.6116C94.0034 26.02 92.9034 27.1314 91.4941 27.9498L91.8288 28.5264C93.3401 27.6488 94.5254 26.4518 95.3788 24.9393L94.7988 24.6116ZM91.4974 27.9478C90.0934 28.7404 88.4674 29.1414 86.6088 29.1414V29.8081C88.5661 29.8081 90.3081 29.3848 91.8254 28.5284L91.4974 27.9478ZM86.6088 26.6281C87.8868 26.6281 89.0314 26.3325 90.0308 25.7326L89.6881 25.161C88.8034 25.6917 87.7801 25.9614 86.6088 25.9614V26.6281ZM90.0308 25.7326C91.0268 25.1352 91.7994 24.3121 92.3454 23.2694L91.7548 22.9601C91.2648 23.8961 90.5768 24.6276 89.6881 25.161L90.0308 25.7326ZM92.3428 23.2749C92.9148 22.2296 93.1961 21.0306 93.1961 19.6874H92.5294C92.5294 20.9354 92.2688 22.0213 91.7574 22.9546L92.3428 23.2749ZM93.1961 19.6874C93.1961 18.3443 92.9148 17.1453 92.3428 16.1L91.7574 16.4202C92.2688 17.3536 92.5294 18.4394 92.5294 19.6874H93.1961ZM92.3468 16.1083C91.8014 15.042 91.0288 14.2055 90.0308 13.607L89.6881 14.1786C90.5748 14.7107 91.2628 15.4526 91.7534 16.412L92.3468 16.1083ZM90.0308 13.607C89.0314 13.007 87.8868 12.7114 86.6088 12.7114V13.3781C87.7801 13.3781 88.8034 13.6478 89.6881 14.1786L90.0308 13.607ZM86.6088 12.7114C85.3308 12.7114 84.1861 13.007 83.1868 13.607L83.5294 14.1786C84.4141 13.6478 85.4374 13.3781 86.6088 13.3781V12.7114ZM83.1868 13.607C82.1901 14.2047 81.4068 15.0394 80.8381 16.1029L81.4261 16.4173C81.9408 15.455 82.6414 14.7115 83.5294 14.1786L83.1868 13.607ZM80.8394 16.1C80.2674 17.1453 79.9861 18.3443 79.9861 19.6874H80.6528C80.6528 18.4394 80.9134 17.3536 81.4248 16.4202L80.8394 16.1ZM79.9861 19.6874C79.9861 21.0306 80.2674 22.2296 80.8394 23.2749L81.4248 22.9546C80.9134 22.0213 80.6528 20.9354 80.6528 19.6874H79.9861ZM80.8394 23.2749C81.4094 24.3146 82.1921 25.136 83.1868 25.7326L83.5294 25.161C82.6394 24.6269 81.9388 23.8936 81.4248 22.9546L80.8394 23.2749ZM83.1868 25.7326C84.1861 26.3325 85.3308 26.6281 86.6088 26.6281V25.9614C85.4374 25.9614 84.4141 25.6917 83.5294 25.161L83.1868 25.7326ZM103.986 28.2381L103.819 28.5264L103.822 28.5284L103.986 28.2381ZM100.523 24.7754L100.231 24.9374L100.235 24.9428L100.523 24.7754ZM100.523 14.5994L100.234 14.434L100.233 14.4356L100.523 14.5994ZM103.986 11.1368L104.149 11.427L104.153 11.425L103.986 11.1368ZM114.056 11.1368L113.889 11.425L113.892 11.427L114.056 11.1368ZM117.483 14.5994L117.191 14.7614L117.195 14.7668L117.483 14.5994ZM117.519 24.7754L117.809 24.9393L117.81 24.9373L117.519 24.7754ZM114.091 28.2381L114.255 28.5284L114.259 28.5264L114.091 28.2381ZM114.48 23.1148L114.187 22.9546L114.185 22.9601L114.48 23.1148ZM114.48 16.2601L114.183 16.412L114.187 16.4202L114.48 16.2601ZM103.562 16.2601L103.854 16.4202L103.856 16.4173L103.562 16.2601ZM109.039 29.1414C107.18 29.1414 105.553 28.7404 104.149 27.9478L103.822 28.5284C105.339 29.3848 107.081 29.8081 109.039 29.8081V29.1414ZM104.153 27.9498C102.743 27.131 101.63 26.0184 100.811 24.608L100.235 24.9428C101.112 26.4534 102.308 27.6492 103.819 28.5264L104.153 27.9498ZM100.815 24.6136C100.021 23.185 99.6201 21.5459 99.6201 19.6874H98.9534C98.9534 21.645 99.3761 23.398 100.231 24.9374L100.815 24.6136ZM99.6201 19.6874C99.6201 17.8045 100.021 16.1666 100.813 14.7633L100.233 14.4356C99.3761 15.9532 98.9534 17.7073 98.9534 19.6874H99.6201ZM100.813 14.7648C101.631 13.332 102.743 12.2214 104.149 11.427L103.822 10.8465C102.308 11.7011 101.111 12.8989 100.234 14.434L100.813 14.7648ZM104.153 11.425C105.557 10.6102 107.181 10.1981 109.039 10.1981V9.53143C107.079 9.53143 105.336 9.96729 103.819 10.8485L104.153 11.425ZM109.039 10.1981C110.871 10.1981 112.485 10.6098 113.889 11.425L114.223 10.8485C112.706 9.96769 110.975 9.53143 109.039 9.53143V10.1981ZM113.892 11.427C115.298 12.2209 116.396 13.3304 117.191 14.7614L117.775 14.4376C116.921 12.9005 115.734 11.7016 114.219 10.8465L113.892 11.427ZM117.195 14.7668C118.009 16.1695 118.422 17.8061 118.422 19.6874H119.089C119.089 17.7057 118.653 15.9503 117.771 14.432L117.195 14.7668ZM118.422 19.6874C118.422 21.5459 118.021 23.185 117.227 24.6136L117.81 24.9373C118.665 23.3979 119.089 21.645 119.089 19.6874H118.422ZM117.228 24.6116C116.433 26.02 115.333 27.1314 113.924 27.9498L114.259 28.5264C115.77 27.6488 116.955 26.4518 117.809 24.9393L117.228 24.6116ZM113.927 27.9478C112.523 28.7404 110.897 29.1414 109.039 29.1414V29.8081C110.996 29.8081 112.738 29.3848 114.255 28.5284L113.927 27.9478ZM109.039 26.6281C110.317 26.6281 111.461 26.3325 112.461 25.7326L112.117 25.161C111.233 25.6917 110.21 25.9614 109.039 25.9614V26.6281ZM112.461 25.7326C113.456 25.1352 114.229 24.3121 114.775 23.2694L114.185 22.9601C113.694 23.8961 113.007 24.6276 112.117 25.161L112.461 25.7326ZM114.772 23.2749C115.345 22.2296 115.626 21.0306 115.626 19.6874H114.959C114.959 20.9354 114.699 22.0213 114.187 22.9546L114.772 23.2749ZM115.626 19.6874C115.626 18.3443 115.345 17.1453 114.772 16.1L114.187 16.4202C114.699 17.3536 114.959 18.4394 114.959 19.6874H115.626ZM114.777 16.1083C114.231 15.042 113.458 14.2055 112.461 13.607L112.117 14.1786C113.005 14.7107 113.691 15.4526 114.183 16.412L114.777 16.1083ZM112.461 13.607C111.461 13.007 110.317 12.7114 109.039 12.7114V13.3781C110.21 13.3781 111.233 13.6478 112.117 14.1786L112.461 13.607ZM109.039 12.7114C107.76 12.7114 106.616 13.007 105.616 13.607L105.959 14.1786C106.844 13.6478 107.867 13.3781 109.039 13.3781V12.7114ZM105.616 13.607C104.62 14.2047 103.837 15.0394 103.268 16.1029L103.856 16.4173C104.371 15.455 105.071 14.7115 105.959 14.1786L105.616 13.607ZM103.269 16.1C102.697 17.1453 102.416 18.3443 102.416 19.6874H103.083C103.083 18.4394 103.343 17.3536 103.854 16.4202L103.269 16.1ZM102.416 19.6874C102.416 21.0306 102.697 22.2296 103.269 23.2749L103.854 22.9546C103.343 22.0213 103.083 20.9354 103.083 19.6874H102.416ZM103.269 23.2749C103.839 24.3146 104.622 25.136 105.616 25.7326L105.959 25.161C105.069 24.6269 104.368 23.8936 103.854 22.9546L103.269 23.2749ZM105.616 25.7326C106.616 26.3325 107.76 26.6281 109.039 26.6281V25.9614C107.867 25.9614 106.844 25.6917 105.959 25.161L105.616 25.7326ZM137.722 28.8741L137.479 29.1016L137.487 29.11L137.495 29.1178L137.722 28.8741ZM134.471 13.7161L134.319 14.0125L134.324 14.0151L134.329 14.0175L134.471 13.7161ZM127.016 15.3061L127.287 15.4999L127.291 15.4954L127.016 15.3061ZM126.309 17.6028V17.9361H126.643V17.6028H126.309ZM124.083 17.6028H123.75V17.9361H124.083V17.6028ZM125.143 13.6454L124.86 13.4698L124.859 13.4714L125.143 13.6454ZM136.662 10.8894L136.5 11.1809L136.507 11.1843L136.662 10.8894ZM139.701 13.9281L139.408 14.0874L139.41 14.0913L139.701 13.9281ZM123.2 28.8741L122.957 29.1016L122.965 29.11L122.973 29.1178L123.2 28.8741ZM123.2 10.5008L122.973 10.2571L122.969 10.261L122.965 10.265L123.2 10.5008ZM125.815 28.8741L126.051 29.1098L126.055 29.1058L126.059 29.1016L125.815 28.8741ZM139.029 29.0354C138.589 29.0354 138.237 28.8982 137.949 28.6304L137.495 29.1178C137.915 29.5096 138.433 29.7021 139.029 29.7021V29.0354ZM137.966 28.6466C137.698 28.3598 137.561 28.0072 137.561 27.5668H136.894C136.894 28.1628 137.087 28.6818 137.479 29.1016L137.966 28.6466ZM137.561 27.5668V18.8748H136.894V27.5668H137.561ZM137.561 18.8748C137.561 17.4939 137.307 16.3352 136.773 15.4208L136.197 15.7567C136.653 16.5384 136.894 17.5703 136.894 18.8748H137.561ZM136.773 15.4208C136.247 14.5175 135.526 13.8453 134.614 13.4147L134.329 14.0175C135.113 14.3878 135.735 14.964 136.197 15.7567L136.773 15.4208ZM134.624 13.4197C133.745 12.9676 132.737 12.7468 131.609 12.7468V13.4134C132.649 13.4134 133.549 13.6166 134.319 14.0125L134.624 13.4197ZM131.609 12.7468C130.574 12.7468 129.627 12.9567 128.775 13.3826L129.073 13.9789C129.823 13.604 130.667 13.4134 131.609 13.4134V12.7468ZM128.775 13.3826C127.928 13.8062 127.247 14.3838 126.742 15.1168L127.291 15.4954C127.727 14.8622 128.319 14.3562 129.073 13.9789L128.775 13.3826ZM126.745 15.1124C126.231 15.8328 125.976 16.6672 125.976 17.6028H126.643C126.643 16.7952 126.86 16.0986 127.287 15.4999L126.745 15.1124ZM126.309 17.2694H124.083V17.9361H126.309V17.2694ZM124.417 17.6028C124.417 16.1741 124.756 14.9163 125.428 13.8195L124.859 13.4714C124.117 14.683 123.75 16.0634 123.75 17.6028H124.417ZM125.427 13.8211C126.126 12.6936 127.072 11.8028 128.271 11.1465L127.951 10.5617C126.654 11.2716 125.621 12.2417 124.86 13.4698L125.427 13.8211ZM128.271 11.1465C129.467 10.4927 130.812 10.1628 132.316 10.1628V9.49609C130.711 9.49609 129.253 9.84929 127.951 10.5617L128.271 11.1465ZM132.316 10.1628C133.891 10.1628 135.283 10.5048 136.5 11.1809L136.824 10.598C135.497 9.86076 133.991 9.49609 132.316 9.49609V10.1628ZM136.507 11.1843C137.741 11.8354 138.708 12.7998 139.408 14.0874L139.994 13.7688C139.233 12.3711 138.174 11.3097 136.818 10.5946L136.507 11.1843ZM139.41 14.0913C140.129 15.3724 140.498 16.9617 140.498 18.8748H141.165C141.165 16.8776 140.78 15.1691 139.991 13.7649L139.41 14.0913ZM140.498 18.8748V27.5668H141.165V18.8748H140.498ZM140.498 27.5668C140.498 28.0002 140.354 28.3501 140.066 28.6384L140.537 29.1098C140.955 28.6914 141.165 28.1698 141.165 27.5668H140.498ZM140.066 28.6384C139.806 28.8984 139.47 29.0354 139.029 29.0354V29.7021C139.625 29.7021 140.138 29.5093 140.537 29.1098L140.066 28.6384ZM124.507 29.0354C124.067 29.0354 123.715 28.8982 123.427 28.6304L122.973 29.1178C123.393 29.5096 123.911 29.7021 124.507 29.7021V29.0354ZM123.444 28.6466C123.176 28.3598 123.039 28.0072 123.039 27.5668H122.372C122.372 28.1628 122.565 28.6818 122.957 29.1016L123.444 28.6466ZM123.039 27.5668V11.8081H122.372V27.5668H123.039ZM123.039 11.8081C123.039 11.3393 123.179 10.9936 123.436 10.7365L122.965 10.265C122.562 10.6675 122.372 11.1934 122.372 11.8081H123.039ZM123.427 10.7444C123.715 10.4767 124.067 10.3394 124.507 10.3394V9.67276C123.911 9.67276 123.393 9.86529 122.973 10.2571L123.427 10.7444ZM124.507 10.3394C124.977 10.3394 125.322 10.4794 125.579 10.7365L126.051 10.265C125.648 9.86263 125.122 9.67276 124.507 9.67276V10.3394ZM125.579 10.7365C125.836 10.9936 125.976 11.3393 125.976 11.8081H126.643C126.643 11.1934 126.453 10.6675 126.051 10.265L125.579 10.7365ZM125.976 11.8081V27.5668H126.643V11.8081H125.976ZM125.976 27.5668C125.976 28.0072 125.839 28.3598 125.571 28.6466L126.059 29.1016C126.451 28.6818 126.643 28.1628 126.643 27.5668H125.976ZM125.579 28.6384C125.322 28.8955 124.977 29.0354 124.507 29.0354V29.7021C125.122 29.7021 125.648 29.5122 126.051 29.1098L125.579 28.6384Z" fill="#0177FB"/>
<path id="Vector_7" d="M26.6221 19.7017L35.1325 28.1383C35.7459 28.7463 36.7395 28.7463 37.3531 28.1383C37.6381 27.8556 37.8283 27.4788 37.8283 27.059V3.625L26.6221 19.7017Z" fill="#F5AF19"/>
<path id="Vector_8" d="M26.5248 0.667969H1.56384C0.70848 0.667969 0 1.3703 0 2.21825V27.057C0 27.9049 0.70848 28.6072 1.56384 28.6072C1.89217 28.6072 2.17729 28.513 2.46241 28.3246C2.55744 28.2818 2.60065 28.2304 2.69568 28.1362L11.6813 19.2284L16.0272 14.9203L18.9563 12.0166L30.3005 0.667969H26.5162H26.5248Z" fill="url(#paint0_linear_1728_343)"/>
<path id="Vector_9" d="M37.7746 2.21825C37.7746 2.12404 37.7746 2.02981 37.7314 1.9356C37.6364 1.18188 36.9712 0.667969 36.2195 0.667969H31.1132L19.2937 12.385L11.915 19.6996L17.6866 27.9991C18.1618 28.7014 19.1554 28.8898 19.8639 28.376C20.0022 28.2818 20.1491 28.1448 20.244 27.9991V27.9564L26.292 19.2885L37.5414 3.0148L37.7746 2.68932V2.21825Z" fill="url(#paint1_linear_1728_343)"/>
</g>
</g>
</g>
</g>
<defs>
<linearGradient id="paint0_linear_1728_343" x1="0" y1="0.667969" x2="29.1106" y2="29.7964" gradientUnits="userSpaceOnUse">
<stop offset="0.0001" stop-color="#46A6FE"/>
<stop offset="1" stop-color="#062AEA"/>
</linearGradient>
<linearGradient id="paint1_linear_1728_343" x1="11.915" y1="0.667969" x2="40.7193" y2="25.2123" gradientUnits="userSpaceOnUse">
<stop offset="0.0001" stop-color="#46A6FE"/>
<stop offset="1" stop-color="#062AEA"/>
</linearGradient>
<clipPath id="clip0_1728_343">
<rect width="228.667" height="30" fill="white"/>
</clipPath>
</defs>
</svg>
