<svg width="218" height="40" viewBox="0 0 218 40" fill="none" xmlns="http://www.w3.org/2000/svg">
<g id="Moon Invoice Logo Blue 1" clip-path="url(#clip0_1728_383)">
<g id="Group">
<path id="Vector" d="M35.9231 17.1795V13.6917L30.4422 8.17046L25.3823 3.10156H0V38.0574C0 39.3009 1.38455 39.9642 2.32815 39.2858C2.40007 39.235 2.46739 39.1778 2.52933 39.115L11.0397 30.4852L16.8053 38.9525C16.9396 39.1496 17.1188 39.3112 17.3277 39.4237C17.5366 39.5362 17.7692 39.5963 18.0058 39.5991C18.2425 39.6018 18.4764 39.547 18.6878 39.4393C18.8991 39.3316 19.0819 39.1742 19.2206 38.9802C19.2281 38.9695 19.2381 38.9632 19.2455 38.9525L24.9563 30.5589L24.9526 30.5552L24.9582 30.5482L33.3945 39.115C34.3287 40.0599 35.9231 39.3922 35.9231 38.0574V17.1795Z" fill="#0079FF"/>
<g id="Vector_2" filter="url(#filter0_d_1728_383)">
<path d="M25.4004 3.07812L35.9225 13.6853H28.5955C27.7497 13.6856 26.9383 13.3467 26.3393 12.7427C25.7403 12.1388 25.4027 11.3193 25.4004 10.4639V3.07812Z" fill="#0079FF"/>
</g>
<path id="Vector_3" d="M27.1913 15.7109H8.74801C8.38991 15.7109 8.09961 16.0045 8.09961 16.3666C8.09961 16.7288 8.38991 17.0224 8.74801 17.0224H27.1913C27.5494 17.0224 27.8397 16.7288 27.8397 16.3666C27.8397 16.0045 27.5494 15.7109 27.1913 15.7109Z" fill="white"/>
<path id="Vector_4" d="M27.1835 20.2695H8.7402C8.3821 20.2695 8.0918 20.5631 8.0918 20.9252C8.0918 21.2874 8.3821 21.581 8.7402 21.581H27.1835C27.5416 21.581 27.8319 21.2874 27.8319 20.9252C27.8319 20.5631 27.5416 20.2695 27.1835 20.2695Z" fill="white"/>
<path id="Vector_5" fill-rule="evenodd" clip-rule="evenodd" d="M27.7402 26.1189C27.7115 26.1482 27.6772 26.1716 27.6395 26.1876C27.6018 26.2036 27.5613 26.2119 27.5204 26.212C27.075 26.212 26.8278 26.0093 26.6646 25.8744C26.5401 25.7737 26.4959 25.7365 26.3613 25.7365C26.2268 25.7365 26.1807 25.7737 26.058 25.8744C25.8942 26.0093 25.6469 26.212 25.2022 26.212C24.7575 26.212 24.5097 26.0093 24.3459 25.8744C24.2212 25.7737 24.1771 25.7365 24.0425 25.7365C23.9079 25.7365 23.8625 25.7737 23.7392 25.8744C23.576 26.0093 23.3288 26.212 22.8834 26.212C22.4381 26.212 22.1915 26.0093 22.0277 25.8744C21.903 25.7737 21.8589 25.7365 21.7243 25.7365C21.5898 25.7365 21.5437 25.7737 21.4204 25.875C21.2572 26.0093 21.01 26.212 20.5646 26.212C20.1193 26.212 19.8726 26.0093 19.7088 25.8744C19.5843 25.7737 19.54 25.7365 19.4055 25.7365C19.271 25.7365 19.2249 25.7737 19.1016 25.875C18.9384 26.0093 18.6911 26.212 18.2458 26.212C17.8005 26.212 17.5532 26.0093 17.39 25.875C17.3163 25.8157 17.2626 25.7345 17.2365 25.6428C17.2104 25.5512 17.2131 25.4536 17.2443 25.3636C17.2731 25.2758 17.3282 25.1994 17.402 25.1447C17.4758 25.09 17.5646 25.06 17.656 25.0587C17.7608 25.0597 17.8621 25.0976 17.9425 25.1658C18.067 25.2666 18.1113 25.3044 18.2458 25.3044C18.3803 25.3044 18.4264 25.2666 18.5491 25.1658C18.7129 25.0316 18.9602 24.8281 19.4055 24.8281C19.8509 24.8281 20.0975 25.031 20.2613 25.1658C20.3858 25.2666 20.4301 25.3044 20.5646 25.3044C20.6991 25.3044 20.7452 25.2666 20.8679 25.1658C21.0317 25.031 21.279 24.8281 21.7243 24.8281C22.1697 24.8281 22.4163 25.031 22.5801 25.1658C22.7047 25.2666 22.7489 25.3044 22.8834 25.3044C23.018 25.3044 23.064 25.2666 23.1868 25.1658C23.3506 25.0316 23.5978 24.8281 24.0425 24.8281C24.4872 24.8281 24.7351 25.0316 24.8989 25.1658C25.0235 25.2666 25.0677 25.3044 25.2022 25.3044C25.3368 25.3044 25.3822 25.2666 25.5049 25.1658C25.6687 25.0316 25.916 24.8281 26.3613 24.8281C26.8066 24.8281 27.0533 25.0316 27.2171 25.1658C27.3417 25.2666 27.3859 25.3044 27.5204 25.3044C27.5617 25.3044 27.6025 25.3127 27.6406 25.3287C27.6787 25.3449 27.7132 25.3684 27.7421 25.3982C27.7711 25.4279 27.794 25.4631 27.8094 25.5019C27.8248 25.5406 27.8324 25.582 27.8318 25.6237V25.8927C27.8319 25.9774 27.799 26.0586 27.7402 26.1189Z" fill="white"/>
<path id="Vector_6" d="M9.87111 11.4657C9.5597 11.4195 9.2815 11.2977 9.03651 11.1004C8.79569 10.903 8.62334 10.6196 8.51953 10.25L9.2358 9.95397C9.27734 10.1219 9.35413 10.2731 9.46626 10.4075C9.57839 10.5377 9.71329 10.628 9.87111 10.6784V9.48151L9.81505 9.45627C9.66139 9.39751 9.51604 9.3282 9.37902 9.24843C9.24617 9.16866 9.12783 9.07627 9.02403 8.97127C8.92439 8.86627 8.84343 8.74874 8.78116 8.61851C8.72298 8.48412 8.69393 8.33504 8.69393 8.17127C8.69393 8.02012 8.72094 7.87735 8.77488 7.74297C8.8289 7.60856 8.9057 7.48887 9.00534 7.38389C9.10915 7.27891 9.23368 7.19281 9.37902 7.12562C9.52437 7.05424 9.6884 7.00804 9.87111 6.98704V6.44531H10.4254V6.99964C10.5915 7.02484 10.7348 7.06893 10.8551 7.13192C10.9798 7.19491 11.0856 7.26841 11.1728 7.35239C11.2642 7.43218 11.3368 7.51827 11.3908 7.61066C11.4448 7.70304 11.4863 7.79335 11.5153 7.88151L10.8178 8.1965C10.7887 8.1125 10.743 8.03274 10.6807 7.95712C10.6185 7.88151 10.5334 7.82066 10.4254 7.77443V8.90197C10.604 8.97758 10.7659 9.05527 10.9112 9.13504C11.0565 9.21481 11.1811 9.30512 11.2849 9.40589C11.3887 9.50674 11.4676 9.6222 11.5216 9.75235C11.5756 9.87835 11.6026 10.0254 11.6026 10.1933C11.6026 10.3823 11.5694 10.5503 11.5029 10.6973C11.4406 10.8442 11.3555 10.9702 11.2475 11.0752C11.1396 11.1802 11.013 11.2642 10.8676 11.3271C10.7264 11.3901 10.5791 11.4343 10.4254 11.4594V12.0137H9.87111V11.4657ZM9.45998 8.17127C9.45998 8.27204 9.49115 8.36027 9.55342 8.43581C9.61985 8.50727 9.72577 8.58074 9.87111 8.65635V7.73666C9.7465 7.7702 9.64686 7.82481 9.57211 7.90043C9.49736 7.97604 9.45998 8.06627 9.45998 8.17127ZM10.8054 10.1996C10.8054 10.0904 10.7763 10.0001 10.7181 9.92874C10.66 9.85735 10.5624 9.78597 10.4254 9.71458V10.6784C10.5375 10.6406 10.6288 10.5817 10.6994 10.502C10.77 10.418 10.8054 10.3172 10.8054 10.1996Z" fill="white"/>
</g>
<path id="Vector_7" d="M129.674 7.53878V21.8772H125.894V7.53878H129.674ZM126.04 4.19807C125.555 3.72505 125.312 3.14362 125.312 2.4538C125.312 1.76398 125.555 1.18255 126.04 0.709532C126.525 0.236511 127.106 0 127.784 0C128.463 0 129.045 0.236511 129.529 0.709532C130.014 1.18255 130.256 1.76398 130.256 2.4538C130.256 3.14362 130.014 3.72505 129.529 4.19807C129.045 4.67109 128.463 4.9076 127.784 4.9076C127.106 4.9076 126.525 4.67109 126.04 4.19807Z" fill="#0F0A44"/>
<path id="Vector_8" d="M137.243 21.8763H133.463V7.53783H137.098V8.69081C138.261 7.72504 139.589 7.24219 141.082 7.24219C143.078 7.24219 144.707 8.01081 145.966 9.5482C146.936 10.711 147.421 12.3863 147.421 14.574V21.8763H143.641V14.2784C143.641 13.0564 143.359 12.1597 142.797 11.588C142.273 11.0559 141.566 10.7898 140.675 10.7898C139.958 10.7898 139.279 10.9771 138.639 11.3516C138.018 11.7063 137.553 12.1103 137.243 12.5637V21.8763Z" fill="#0F0A44"/>
<path id="Vector_9" d="M152.524 7.53906L156.391 16.29L160.258 7.53906H164.184L157.699 21.8775H155.082L148.598 7.53906H152.524Z" fill="#0F0A44"/>
<path id="Vector_10" d="M166.626 20.0137C165.192 18.575 164.475 16.811 164.475 14.7218C164.475 12.6327 165.192 10.8687 166.626 9.42989C168.061 7.97143 169.845 7.24219 171.977 7.24219C174.109 7.24219 175.893 7.97143 177.328 9.42989C178.762 10.8687 179.479 12.6327 179.479 14.7218C179.479 16.811 178.762 18.575 177.328 20.0137C175.893 21.4526 174.109 22.172 171.977 22.172C169.845 22.172 168.061 21.4526 166.626 20.0137ZM169.302 11.9428C168.604 12.6918 168.255 13.6181 168.255 14.7218C168.255 15.8256 168.604 16.7519 169.302 17.5008C170 18.2498 170.891 18.6243 171.977 18.6243C173.063 18.6243 173.955 18.2498 174.652 17.5008C175.35 16.7519 175.699 15.8256 175.699 14.7218C175.699 13.6181 175.35 12.6918 174.652 11.9428C173.955 11.1742 173.063 10.7898 171.977 10.7898C170.891 10.7898 170 11.1742 169.302 11.9428Z" fill="#0F0A44"/>
<path id="Vector_11" d="M185.875 7.53878V21.8772H182.095V7.53878H185.875ZM182.241 4.19807C181.756 3.72505 181.514 3.14362 181.514 2.4538C181.514 1.76398 181.756 1.18255 182.241 0.709532C182.725 0.236511 183.307 0 183.985 0C184.663 0 185.245 0.236511 185.729 0.709532C186.214 1.18255 186.456 1.76398 186.456 2.4538C186.456 3.14362 186.214 3.72505 185.729 4.19807C185.245 4.67109 184.663 4.9076 183.985 4.9076C183.307 4.9076 182.725 4.67109 182.241 4.19807Z" fill="#0F0A44"/>
<path id="Vector_12" d="M199.55 16.7322L202.458 18.9495C200.868 21.0978 198.736 22.172 196.061 22.172C193.889 22.172 192.086 21.4526 190.652 20.0137C189.217 18.575 188.5 16.811 188.5 14.7218C188.5 12.6327 189.227 10.8687 190.681 9.42989C192.135 7.97143 193.938 7.24219 196.089 7.24219C197.292 7.24219 198.406 7.50826 199.434 8.04043C200.481 8.55289 201.343 9.24266 202.021 10.1099L199.347 12.5046C198.493 11.3614 197.407 10.7898 196.089 10.7898C195.004 10.7898 194.093 11.1742 193.356 11.9428C192.639 12.6918 192.28 13.6181 192.28 14.7218C192.28 15.8453 192.639 16.7814 193.356 17.5304C194.093 18.2597 195.033 18.6243 196.176 18.6243C196.894 18.6243 197.544 18.4469 198.125 18.0921C198.726 17.7177 199.201 17.2643 199.55 16.7322Z" fill="#0F0A44"/>
<path id="Vector_13" d="M214.642 17.4121L216.793 19.5999C216.115 20.408 215.252 21.0387 214.205 21.492C213.178 21.9453 212.112 22.172 211.007 22.172C208.874 22.172 207.111 21.492 205.715 20.132C204.319 18.7523 203.621 16.949 203.621 14.7218C203.621 12.6523 204.251 10.8884 205.511 9.42989C206.79 7.97143 208.448 7.24219 210.483 7.24219C212.403 7.24219 213.993 7.96158 215.252 9.40035C216.512 10.8194 217.142 12.544 217.142 14.574C217.142 14.9879 217.113 15.3525 217.055 15.6679H207.285C207.381 16.673 207.789 17.491 208.506 18.1217C209.224 18.7523 210.086 19.0677 211.094 19.0677C212.451 19.0677 213.634 18.5159 214.642 17.4121ZM207.459 12.8593H213.275C213.217 12.1892 212.917 11.6078 212.373 11.115C211.85 10.6026 211.22 10.3464 210.483 10.3464C209.728 10.3464 209.059 10.6026 208.477 11.115C207.895 11.6078 207.556 12.1892 207.459 12.8593Z" fill="#0F0A44"/>
<path id="Vector_14" d="M51.8485 21.8763H48.0684V7.53783H51.7031V8.69085C52.7693 7.72508 54.039 7.24219 55.5124 7.24219C57.4509 7.24219 59.0308 7.99116 60.2521 9.489C61.6479 7.99116 63.315 7.24219 65.2536 7.24219C66.2229 7.24219 67.1436 7.44913 68.016 7.863C68.9077 8.27693 69.6347 8.83862 70.1969 9.54816C71.1468 10.7307 71.6217 12.3075 71.6217 14.2784V21.8763H67.8415V14.1305C67.8415 13.0269 67.6089 12.2089 67.1436 11.6768C66.6202 11.0855 65.9127 10.7898 65.0209 10.7898C64.2843 10.7898 63.6058 10.9869 62.9855 11.3812C62.3845 11.7753 61.929 12.2089 61.6188 12.6819C61.6963 13.3126 61.7351 13.8448 61.7351 14.2784V21.8763H57.9549V14.1305C57.9549 13.0269 57.7223 12.2089 57.2571 11.6768C56.7336 11.0855 56.0261 10.7898 55.1344 10.7898C53.8549 10.7898 52.7596 11.3812 51.8485 12.5637V21.8763Z" fill="#0079FF"/>
<path id="Vector_15" d="M76.1049 20.0138C74.6704 18.575 73.9531 16.811 73.9531 14.7218C73.9531 12.6327 74.6704 10.8687 76.1049 9.42993C77.5394 7.97146 79.3227 7.24219 81.4555 7.24219C83.5876 7.24219 85.3709 7.97146 86.8054 9.42993C88.2399 10.8687 88.9572 12.6327 88.9572 14.7218C88.9572 16.811 88.2399 18.575 86.8054 20.0138C85.3709 21.4525 83.5876 22.1719 81.4555 22.1719C79.3227 22.1719 77.5394 21.4525 76.1049 20.0138ZM78.7802 11.9429C78.0826 12.6918 77.7331 13.6182 77.7331 14.7218C77.7331 15.8255 78.0826 16.7519 78.7802 17.5008C79.4778 18.2498 80.3698 18.6242 81.4555 18.6242C82.5412 18.6242 83.4325 18.2498 84.1308 17.5008C84.8284 16.7519 85.1772 15.8255 85.1772 14.7218C85.1772 13.6182 84.8284 12.6918 84.1308 11.9429C83.4325 11.1742 82.5412 10.7898 81.4555 10.7898C80.3698 10.7898 79.4778 11.1742 78.7802 11.9429Z" fill="#0079FF"/>
<path id="Vector_16" d="M92.8451 20.0138C91.4106 18.575 90.6934 16.811 90.6934 14.7218C90.6934 12.6327 91.4106 10.8687 92.8451 9.42993C94.2796 7.97146 96.0629 7.24219 98.1958 7.24219C100.328 7.24219 102.111 7.97146 103.546 9.42993C104.98 10.8687 105.697 12.6327 105.697 14.7218C105.697 16.811 104.98 18.575 103.546 20.0138C102.111 21.4525 100.328 22.1719 98.1958 22.1719C96.0629 22.1719 94.2796 21.4525 92.8451 20.0138ZM95.5204 11.9429C94.8229 12.6918 94.4733 13.6182 94.4733 14.7218C94.4733 15.8255 94.8229 16.7519 95.5204 17.5008C96.218 18.2498 97.11 18.6242 98.1958 18.6242C99.2815 18.6242 100.173 18.2498 100.871 17.5008C101.569 16.7519 101.917 15.8255 101.917 14.7218C101.917 13.6182 101.569 12.6918 100.871 11.9429C100.173 11.1742 99.2815 10.7898 98.1958 10.7898C97.11 10.7898 96.218 11.1742 95.5204 11.9429Z" fill="#0079FF"/>
<path id="Vector_17" d="M112.092 21.8763H108.312V7.53783H111.947V8.69085C113.11 7.72508 114.439 7.24219 115.931 7.24219C117.928 7.24219 119.556 8.01085 120.816 9.54816C121.785 10.711 122.27 12.3863 122.27 14.574V21.8763H118.49V14.2784C118.49 13.0564 118.209 12.1596 117.647 11.5881C117.123 11.0559 116.416 10.7898 115.524 10.7898C114.806 10.7898 114.128 10.9771 113.488 11.3515C112.868 11.7063 112.403 12.1104 112.092 12.5637V21.8763Z" fill="#0079FF"/>
<path id="Vector_18" d="M132.43 32.2404L132.101 32.4908C131.608 32.4908 131.12 32.4955 130.636 32.5047C130.162 32.514 129.674 32.5186 129.172 32.5186H128.05C128.041 32.5835 128.037 32.6485 128.037 32.7134C128.037 32.7691 128.037 32.8247 128.037 32.8804C128.037 33.1215 128.078 33.3627 128.16 33.6038C128.242 33.8449 128.37 34.0629 128.543 34.2577C128.725 34.4431 128.954 34.5962 129.228 34.7168C129.501 34.8281 129.834 34.8838 130.226 34.8838C130.509 34.8838 130.805 34.8466 131.115 34.7725C131.435 34.689 131.731 34.5823 132.005 34.4525L132.237 34.5498V35.0507L132.101 35.2038C131.882 35.3799 131.558 35.5469 131.129 35.7046C130.71 35.8622 130.254 35.9411 129.761 35.9411C129.278 35.9411 128.835 35.8622 128.434 35.7046C128.041 35.5376 127.699 35.3058 127.407 35.0089C127.124 34.7121 126.901 34.3597 126.737 33.9516C126.582 33.5435 126.504 33.0891 126.504 32.5882C126.504 32.0781 126.586 31.6143 126.751 31.1969C126.915 30.7796 127.138 30.4225 127.421 30.1257C127.713 29.8289 128.05 29.597 128.434 29.4301C128.826 29.2631 129.246 29.1797 129.692 29.1797C129.93 29.1797 130.195 29.2122 130.486 29.2771C130.787 29.342 131.074 29.4671 131.348 29.6527C131.622 29.8289 131.868 30.084 132.088 30.4178C132.306 30.7425 132.457 31.1738 132.539 31.7117L132.43 32.2404ZM129.707 30.2231C129.259 30.2231 128.899 30.3622 128.625 30.6405C128.361 30.9095 128.192 31.2248 128.119 31.5865H128.803C129.122 31.5865 129.437 31.5818 129.747 31.5726C130.058 31.5541 130.372 31.5448 130.692 31.5448C130.81 31.5448 130.897 31.5123 130.951 31.4474C131.006 31.3732 131.034 31.299 131.034 31.2248C131.034 30.9465 130.901 30.71 130.636 30.5152C130.372 30.3205 130.062 30.2231 129.707 30.2231Z" fill="#0F0A44"/>
<path id="Vector_19" d="M137.217 35.6907C137.244 35.6071 137.262 35.4866 137.271 35.3289C137.289 35.1713 137.312 35.0275 137.34 34.8977L137.326 34.8559C137.217 34.9951 137.089 35.1295 136.943 35.2594C136.806 35.3892 136.651 35.5051 136.477 35.6072C136.304 35.7092 136.117 35.7881 135.917 35.8437C135.725 35.9086 135.52 35.9411 135.301 35.9411C134.973 35.9411 134.685 35.8901 134.438 35.7881C134.193 35.686 133.988 35.5515 133.823 35.3846C133.658 35.2176 133.531 35.0228 133.44 34.8003C133.358 34.5777 133.316 34.3458 133.316 34.1047C133.316 33.7429 133.394 33.4276 133.549 33.1586C133.705 32.8896 133.91 32.6717 134.165 32.5047C134.402 32.3471 134.681 32.2265 135 32.143C135.319 32.0502 135.629 31.9807 135.93 31.9343C136.232 31.8879 136.505 31.8601 136.751 31.8508C136.997 31.8323 137.161 31.823 137.244 31.823H137.435C137.426 31.5355 137.408 31.3129 137.381 31.1552C137.354 30.9883 137.317 30.8491 137.271 30.7378C137.189 30.5524 137.052 30.4225 136.861 30.3483C136.678 30.2648 136.459 30.2231 136.204 30.2231C136.048 30.2231 135.88 30.237 135.697 30.2648C135.524 30.2834 135.36 30.3252 135.205 30.3901C135.05 30.455 134.913 30.5477 134.795 30.6683C134.685 30.7796 134.621 30.928 134.603 31.1135L134.548 31.1552H134.11L133.988 29.8475L134.028 29.764C134.083 29.7083 134.188 29.6481 134.343 29.5832C134.498 29.5182 134.685 29.4579 134.904 29.4022C135.123 29.3373 135.36 29.2863 135.616 29.2492C135.88 29.2028 136.145 29.1797 136.409 29.1797C136.765 29.1797 137.098 29.226 137.408 29.3188C137.718 29.4022 137.983 29.5321 138.202 29.7083C138.429 29.8845 138.608 30.1071 138.735 30.3761C138.863 30.6358 138.927 30.9419 138.927 31.2944C138.927 31.6746 138.923 31.9992 138.914 32.2682C138.914 32.5372 138.908 32.7876 138.899 33.0195C138.89 33.2514 138.881 33.4786 138.872 33.7012C138.872 33.9145 138.872 34.1557 138.872 34.4246C138.89 34.638 138.914 34.791 138.941 34.8838C138.968 34.9765 139.014 35.0507 139.078 35.1063C139.151 35.1805 139.26 35.2269 139.406 35.2455C139.561 35.2548 139.702 35.2594 139.83 35.2594L139.872 35.315L139.899 35.7881L139.885 35.8437C139.73 35.8251 139.552 35.8112 139.351 35.802C139.151 35.7927 138.964 35.7881 138.79 35.7881C138.535 35.7881 138.28 35.7881 138.024 35.7881C137.768 35.7973 137.527 35.8112 137.298 35.8298L137.217 35.6907ZM137.217 34.1881C137.244 34.1418 137.271 34.0861 137.298 34.0211C137.335 33.9562 137.358 33.8774 137.367 33.7847L137.435 32.6021H137.312C137.03 32.6021 136.751 32.6207 136.477 32.6578C136.204 32.6948 135.958 32.7645 135.739 32.8665C135.52 32.9685 135.342 33.1122 135.205 33.2978C135.068 33.4832 135 33.7244 135 34.0211C135 34.2716 135.059 34.471 135.178 34.6194C135.306 34.7678 135.474 34.842 135.684 34.842C135.839 34.842 135.994 34.8235 136.149 34.7864C136.313 34.74 136.464 34.6843 136.601 34.6194C136.738 34.5545 136.861 34.4849 136.97 34.4107C137.08 34.3272 137.161 34.2531 137.217 34.1881Z" fill="#0F0A44"/>
<path id="Vector_20" d="M143.616 31.8926C143.999 31.9853 144.309 32.1105 144.547 32.2682C144.783 32.4259 144.961 32.5975 145.08 32.783C145.208 32.9685 145.29 33.1586 145.327 33.3534C145.372 33.5481 145.395 33.729 145.395 33.896C145.395 34.1928 145.336 34.4664 145.217 34.7168C145.098 34.9672 144.925 35.1851 144.697 35.3707C144.478 35.5469 144.209 35.686 143.89 35.7881C143.571 35.8901 143.21 35.9411 142.809 35.9411C142.389 35.9411 141.997 35.8947 141.631 35.802C141.267 35.7185 140.979 35.6165 140.77 35.4959L140.605 35.315L140.811 33.6038H141.262L141.303 33.6595C141.303 34.0675 141.426 34.3921 141.673 34.6333C141.919 34.8652 142.284 34.9811 142.768 34.9811C143.023 34.9811 143.238 34.9579 143.411 34.9115C143.593 34.8559 143.735 34.791 143.835 34.7168C143.944 34.6333 144.022 34.5452 144.068 34.4525C144.113 34.3505 144.136 34.2577 144.136 34.1742C144.136 34.1093 144.131 34.0397 144.122 33.9655C144.113 33.8913 144.086 33.8171 144.04 33.7429C143.994 33.6595 143.926 33.5806 143.835 33.5064C143.744 33.4229 143.611 33.3534 143.438 33.2978L142.125 32.9638C141.824 32.8896 141.577 32.783 141.386 32.6438C141.194 32.5047 141.039 32.3517 140.92 32.1848C140.811 32.0085 140.733 31.823 140.688 31.6282C140.651 31.4335 140.633 31.2387 140.633 31.0439C140.633 30.7378 140.692 30.4688 140.811 30.237C140.929 29.9958 141.089 29.8011 141.289 29.6527C141.5 29.495 141.741 29.3791 142.015 29.3048C142.289 29.2214 142.585 29.1797 142.904 29.1797C143.306 29.1797 143.675 29.2307 144.012 29.3327C144.351 29.4255 144.61 29.5275 144.792 29.6388L144.97 29.8057L144.82 31.1552H144.396L144.341 31.1135C144.341 30.9095 144.286 30.7425 144.177 30.6126C144.077 30.4735 143.949 30.3668 143.794 30.2927C143.648 30.2091 143.493 30.1535 143.328 30.1257C143.164 30.0886 143.018 30.0701 142.89 30.0701C142.526 30.0701 142.265 30.1489 142.11 30.3065C141.955 30.4642 141.878 30.6405 141.878 30.8352C141.878 31.0021 141.928 31.1645 142.029 31.3222C142.138 31.4798 142.343 31.5958 142.645 31.67L143.616 31.8926Z" fill="#0F0A44"/>
<path id="Vector_21" d="M149.855 37.402C149.746 37.6803 149.6 37.9307 149.417 38.1533C149.244 38.3851 149.043 38.5846 148.815 38.7515C148.587 38.9184 148.345 39.053 148.09 39.155C147.834 39.2663 147.575 39.3405 147.31 39.3776C147.237 39.3961 147.15 39.4054 147.05 39.4054C146.959 39.4054 146.822 39.4054 146.64 39.4054L146.544 39.3776L146.503 38.668L146.557 38.5985H146.749C146.858 38.5985 146.977 38.5846 147.105 38.5567C147.232 38.5382 147.355 38.4964 147.474 38.4315C147.739 38.3017 147.98 38.1162 148.2 37.875C148.428 37.6339 148.583 37.402 148.664 37.1794L149.048 36.136L147.953 33.59C147.908 33.488 147.834 33.3071 147.735 33.0474C147.634 32.7877 147.52 32.5048 147.392 32.1988C147.265 31.8834 147.128 31.5727 146.982 31.2667C146.845 30.9606 146.717 30.7055 146.598 30.5014C146.507 30.353 146.402 30.2371 146.283 30.1537C146.174 30.0702 146.024 30.0192 145.832 30.0006L145.75 29.931V29.458L145.804 29.4023C145.96 29.421 146.124 29.4395 146.298 29.458C146.471 29.4766 146.631 29.4859 146.777 29.4859H147.857C147.994 29.4859 148.158 29.4766 148.35 29.458C148.551 29.4395 148.733 29.421 148.897 29.4023L148.952 29.458V29.9032L148.897 29.9589C148.724 29.9774 148.574 30.033 148.446 30.1258C148.327 30.2093 148.268 30.3345 148.268 30.5014C148.268 30.6127 148.304 30.7983 148.378 31.058C148.459 31.3083 148.551 31.5773 148.651 31.8649C148.76 32.1524 148.861 32.4213 148.952 32.6718C149.053 32.913 149.116 33.0753 149.143 33.1587L149.732 34.8421L150.416 33.1587C150.48 33.0103 150.557 32.8248 150.649 32.6022C150.74 32.3703 150.827 32.1292 150.909 31.8788C151 31.6283 151.078 31.3826 151.141 31.1414C151.205 30.9003 151.238 30.687 151.238 30.5014C151.238 30.2974 151.169 30.1629 151.032 30.098C150.895 30.0238 150.75 29.9774 150.594 29.9589L150.539 29.9032V29.458L150.594 29.4023C150.768 29.4395 150.932 29.4627 151.087 29.472C151.242 29.4812 151.388 29.4859 151.524 29.4859H152.633C152.788 29.4859 152.938 29.4766 153.084 29.458C153.24 29.4395 153.404 29.421 153.577 29.4023L153.632 29.458V29.931L153.55 30.0006C153.395 30.0192 153.258 30.0655 153.14 30.1397C153.03 30.214 152.925 30.3345 152.825 30.5014C152.688 30.724 152.533 31.0116 152.36 31.364C152.195 31.7072 152.031 32.055 151.867 32.4074C151.712 32.7599 151.57 33.0799 151.443 33.3674C151.315 33.655 151.233 33.8543 151.196 33.9657L149.855 37.402Z" fill="#0F0A44"/>
<path id="Vector_22" d="M160.435 35.8459C160.371 35.8459 160.276 35.8413 160.148 35.832C160.02 35.8227 159.883 35.8134 159.737 35.8042C159.591 35.8042 159.454 35.7995 159.327 35.7903C159.199 35.7903 159.103 35.7903 159.039 35.7903H158.3C158.237 35.7903 158.136 35.7903 157.999 35.7903C157.871 35.7995 157.735 35.8042 157.589 35.8042C157.452 35.8134 157.315 35.8227 157.178 35.832C157.05 35.8413 156.955 35.8459 156.891 35.8459L156.877 35.7903L156.904 35.3172L156.946 35.2616C157.083 35.2616 157.223 35.257 157.369 35.2477C157.516 35.2291 157.625 35.1827 157.698 35.1085C157.762 35.0436 157.808 34.9601 157.835 34.8581C157.862 34.7561 157.886 34.6124 157.904 34.4268C157.913 34.3619 157.917 34.297 157.917 34.2321C157.926 34.1671 157.931 34.0976 157.931 34.0234C157.94 33.9492 157.945 33.8611 157.945 33.7591C157.945 33.6571 157.945 33.5318 157.945 33.3834V31.8113C157.945 31.6351 157.945 31.496 157.945 31.394C157.945 31.2827 157.94 31.1899 157.931 31.1157C157.931 31.0415 157.926 30.9766 157.917 30.9209C157.917 30.856 157.913 30.7818 157.904 30.6983C157.886 30.6056 157.858 30.5174 157.821 30.434C157.785 30.3505 157.753 30.2949 157.726 30.2671C157.634 30.1464 157.52 30.0769 157.383 30.0584C157.247 30.0398 157.105 30.0305 156.959 30.0305L156.904 29.9749V29.5018L156.959 29.4601H157.657C157.867 29.4601 158.091 29.4601 158.327 29.4601C158.565 29.4508 158.774 29.4323 158.957 29.4044L159.436 29.3349L159.518 29.5992C159.5 29.6364 159.482 29.6966 159.463 29.7801C159.454 29.8543 159.445 29.9377 159.436 30.0305C159.436 30.114 159.431 30.2021 159.422 30.2949C159.422 30.3784 159.422 30.4479 159.422 30.5035C159.422 30.5777 159.418 30.6473 159.409 30.7122C159.409 30.7679 159.409 30.8374 159.409 30.9209C159.409 30.9951 159.404 31.0925 159.395 31.2131C159.395 31.3337 159.395 31.4821 159.395 31.6583V33.2164C159.395 33.402 159.395 33.555 159.395 33.6756C159.404 33.7869 159.409 33.8843 159.409 33.9677C159.418 34.0512 159.422 34.1301 159.422 34.2043C159.431 34.2692 159.44 34.3434 159.449 34.4268C159.468 34.6216 159.486 34.7701 159.505 34.8721C159.532 34.9648 159.582 35.0436 159.655 35.1085C159.728 35.1827 159.828 35.2291 159.956 35.2477C160.092 35.257 160.229 35.2616 160.366 35.2616L160.435 35.3311L160.462 35.7903L160.435 35.8459ZM157.657 27.262C157.657 27.1507 157.68 27.0394 157.726 26.9281C157.771 26.8167 157.835 26.7194 157.917 26.6359C157.999 26.5431 158.091 26.4736 158.19 26.4272C158.3 26.3716 158.414 26.3438 158.533 26.3438C158.761 26.3438 158.966 26.4411 159.149 26.6359C159.34 26.8214 159.436 27.0301 159.436 27.262C159.436 27.3825 159.409 27.4984 159.354 27.6097C159.309 27.7118 159.24 27.8045 159.149 27.8881C159.067 27.9715 158.97 28.0364 158.862 28.0828C158.752 28.1291 158.642 28.1524 158.533 28.1524C158.296 28.1524 158.091 28.0642 157.917 27.8881C157.744 27.7118 157.657 27.5031 157.657 27.262Z" fill="#0F0A44"/>
<path id="Vector_23" d="M163.606 30.5987C163.815 30.1906 164.103 29.8521 164.467 29.5832C164.832 29.3142 165.261 29.1797 165.754 29.1797C166.037 29.1797 166.315 29.2168 166.588 29.291C166.862 29.3651 167.109 29.4811 167.327 29.6388C167.555 29.7965 167.743 30.0005 167.888 30.2509C168.043 30.4921 168.144 30.7796 168.189 31.1135C168.217 31.3546 168.231 31.6097 168.231 31.8787C168.24 32.1476 168.244 32.4166 168.244 32.6856C168.253 33.0009 168.258 33.2931 168.258 33.5621C168.258 33.8218 168.258 34.1093 168.258 34.4246C168.258 34.638 168.281 34.8003 168.326 34.9115C168.381 35.0136 168.445 35.0831 168.518 35.1202C168.618 35.1759 168.723 35.213 168.832 35.2315C168.951 35.2501 169.083 35.2594 169.229 35.2594L169.27 35.315L169.298 35.7881L169.27 35.8437C169.079 35.8251 168.865 35.8112 168.627 35.802C168.4 35.7927 168.176 35.7881 167.957 35.7881C167.738 35.7881 167.519 35.7881 167.3 35.7881C167.081 35.7973 166.876 35.8112 166.684 35.8298L166.588 35.5515C166.615 35.431 166.639 35.2501 166.657 35.0089C166.684 34.7678 166.702 34.573 166.712 34.4246C166.73 34.0721 166.743 33.7429 166.752 33.4368C166.761 33.1308 166.766 32.8571 166.766 32.616C166.766 32.4027 166.761 32.1708 166.752 31.9204C166.743 31.67 166.712 31.452 166.657 31.2665C166.584 30.9697 166.433 30.7518 166.205 30.6126C165.987 30.4642 165.731 30.3901 165.439 30.3901C165.165 30.3901 164.915 30.4411 164.686 30.5431C164.458 30.6451 164.262 30.7703 164.098 30.9187C163.943 31.0578 163.82 31.2062 163.728 31.3639C163.638 31.5216 163.591 31.6607 163.591 31.7813V33.2142C163.591 33.3998 163.591 33.5528 163.591 33.6734C163.591 33.7847 163.591 33.8821 163.591 33.9655C163.6 34.049 163.606 34.1278 163.606 34.2021C163.615 34.267 163.624 34.3411 163.633 34.4246C163.651 34.6194 163.687 34.7678 163.742 34.8698C163.806 34.9626 163.874 35.0414 163.948 35.1063C164.02 35.1805 164.107 35.2269 164.207 35.2455C164.308 35.2548 164.427 35.2594 164.564 35.2594L164.632 35.3289L164.659 35.7881L164.632 35.8437C164.568 35.8437 164.472 35.8391 164.344 35.8298C164.216 35.8205 164.08 35.8112 163.934 35.802C163.788 35.802 163.651 35.7973 163.523 35.7881C163.395 35.7881 163.3 35.7881 163.236 35.7881H162.483C162.419 35.7881 162.319 35.7881 162.183 35.7881C162.055 35.7973 161.918 35.802 161.772 35.802C161.635 35.8112 161.498 35.8205 161.361 35.8298C161.234 35.8391 161.138 35.8437 161.074 35.8437L161.061 35.7881L161.088 35.315L161.129 35.2594C161.275 35.2594 161.403 35.2548 161.511 35.2455C161.63 35.2269 161.726 35.1805 161.799 35.1063C161.863 35.0414 161.922 34.9579 161.977 34.8559C162.032 34.7539 162.068 34.6101 162.086 34.4246C162.096 34.3597 162.1 34.2948 162.1 34.2298C162.109 34.1649 162.114 34.0954 162.114 34.0211C162.123 33.947 162.127 33.8588 162.127 33.7568C162.127 33.6548 162.127 33.5296 162.127 33.3812V31.9482C162.127 31.772 162.127 31.6236 162.127 31.503C162.127 31.3825 162.123 31.2758 162.114 31.1831C162.114 31.0903 162.109 31.0068 162.1 30.9326C162.1 30.8585 162.096 30.7796 162.086 30.6961C162.068 30.6034 162.041 30.5152 162.004 30.4318C161.968 30.3483 161.936 30.2927 161.909 30.2648C161.817 30.1442 161.704 30.0747 161.567 30.0561C161.43 30.0376 161.288 30.0283 161.142 30.0283L161.088 29.9727V29.4996L161.142 29.4579H161.84C162.05 29.4579 162.273 29.4579 162.511 29.4579C162.757 29.4486 162.972 29.4301 163.154 29.4022L163.633 29.3327L163.715 29.597C163.642 29.6991 163.596 29.8428 163.578 30.0283C163.569 30.2045 163.564 30.3854 163.564 30.5709L163.606 30.5987Z" fill="#0F0A44"/>
<path id="Vector_24" d="M172.46 35.8577L172.323 35.7882L171.379 33.5622C171.306 33.3953 171.237 33.2468 171.174 33.117C171.119 32.9871 171.051 32.8341 170.968 32.6579C170.886 32.4817 170.79 32.2683 170.681 32.0179C170.572 31.7675 170.435 31.4382 170.271 31.0301C170.206 30.8724 170.161 30.7658 170.134 30.7101C170.106 30.6452 170.07 30.5757 170.024 30.5014C169.933 30.353 169.828 30.2371 169.709 30.1537C169.6 30.0702 169.45 30.0192 169.258 30.0006L169.176 29.931V29.458L169.23 29.4023C169.385 29.421 169.55 29.4395 169.723 29.458C169.897 29.4766 170.056 29.4859 170.202 29.4859H171.283C171.42 29.4859 171.584 29.4766 171.775 29.458C171.977 29.4395 172.159 29.421 172.323 29.4023L172.378 29.458V29.9032L172.323 29.9589C172.15 29.9774 171.999 30.033 171.872 30.1258C171.753 30.2093 171.694 30.3299 171.694 30.4876C171.694 30.5988 171.725 30.775 171.789 31.0162C171.862 31.2481 171.944 31.4985 172.036 31.7675C172.136 32.0364 172.232 32.3008 172.323 32.5605C172.423 32.8202 172.501 33.0243 172.555 33.1727L173.158 34.8421L173.842 33.1587C173.897 33.0196 173.97 32.8341 174.061 32.6022C174.152 32.3703 174.243 32.1292 174.334 31.8788C174.426 31.6191 174.504 31.3733 174.567 31.1414C174.631 30.9003 174.663 30.7055 174.663 30.5571C174.663 30.316 174.599 30.1629 174.471 30.098C174.344 30.033 174.194 29.9867 174.019 29.9589L173.965 29.9032V29.458L174.019 29.4023C174.194 29.4395 174.358 29.4627 174.513 29.472C174.668 29.4812 174.813 29.4859 174.95 29.4859H176.059C176.214 29.4859 176.364 29.4766 176.51 29.458C176.665 29.4395 176.829 29.421 177.003 29.4023L177.058 29.458V29.931L176.976 30.0006C176.82 30.0192 176.683 30.0655 176.565 30.1397C176.456 30.2047 176.351 30.3253 176.251 30.5014C176.141 30.687 175.999 30.956 175.826 31.3083C175.662 31.6516 175.493 32.0087 175.32 32.3797C175.156 32.7413 175.005 33.0799 174.868 33.3953C174.741 33.7013 174.654 33.9053 174.608 34.0073L173.87 35.7882L172.46 35.8577Z" fill="#0F0A44"/>
<path id="Vector_25" d="M180.759 29.1797C181.297 29.1797 181.776 29.2771 182.195 29.4718C182.615 29.6573 182.966 29.9124 183.249 30.237C183.541 30.5524 183.76 30.9187 183.906 31.3361C184.061 31.7535 184.138 32.1848 184.138 32.6299C184.138 33.0566 184.07 33.4693 183.933 33.8681C183.796 34.267 183.587 34.6194 183.304 34.9255C183.021 35.2315 182.67 35.4773 182.25 35.6628C181.831 35.8483 181.343 35.9411 180.786 35.9411C180.211 35.9411 179.709 35.8437 179.281 35.6489C178.852 35.4541 178.496 35.1991 178.213 34.8838C177.94 34.5684 177.735 34.2113 177.598 33.8125C177.461 33.4044 177.393 32.987 177.393 32.5604C177.393 32.1059 177.47 31.6746 177.625 31.2665C177.78 30.8585 177.999 30.5013 178.282 30.1952C178.574 29.8799 178.925 29.6342 179.336 29.4579C179.755 29.2724 180.23 29.1797 180.759 29.1797ZM180.772 34.9811C181.055 34.9811 181.301 34.9162 181.511 34.7864C181.73 34.6472 181.912 34.471 182.059 34.2577C182.205 34.0351 182.31 33.7847 182.373 33.5064C182.447 33.2189 182.483 32.9268 182.483 32.6299C182.483 32.3424 182.441 32.0549 182.36 31.7674C182.287 31.4705 182.173 31.2062 182.018 30.9744C181.872 30.7425 181.689 30.5524 181.47 30.4039C181.251 30.2555 181 30.1814 180.718 30.1814C180.426 30.1814 180.17 30.2509 179.951 30.3901C179.741 30.5292 179.568 30.71 179.432 30.9326C179.295 31.1552 179.189 31.4056 179.117 31.6839C179.053 31.9621 179.021 32.245 179.021 32.5325C179.021 32.8294 179.057 33.1215 179.13 33.409C179.212 33.6965 179.326 33.9609 179.472 34.2021C179.628 34.4339 179.814 34.6241 180.033 34.7725C180.253 34.9115 180.498 34.9811 180.772 34.9811Z" fill="#0F0A44"/>
<path id="Vector_26" d="M188.564 35.8459C188.5 35.8459 188.405 35.8413 188.277 35.832C188.149 35.8227 188.012 35.8134 187.866 35.8042C187.72 35.8042 187.583 35.7995 187.456 35.7903C187.328 35.7903 187.232 35.7903 187.168 35.7903H186.429C186.365 35.7903 186.265 35.7903 186.128 35.7903C186 35.7995 185.864 35.8042 185.718 35.8042C185.581 35.8134 185.444 35.8227 185.307 35.832C185.179 35.8413 185.084 35.8459 185.019 35.8459L185.006 35.7903L185.033 35.3172L185.075 35.2616C185.212 35.2616 185.352 35.257 185.498 35.2477C185.644 35.2291 185.754 35.1827 185.827 35.1085C185.891 35.0436 185.936 34.9601 185.964 34.8581C185.991 34.7561 186.014 34.6124 186.033 34.4268C186.042 34.3619 186.046 34.297 186.046 34.2321C186.055 34.1671 186.06 34.0976 186.06 34.0234C186.069 33.9492 186.073 33.8611 186.073 33.7591C186.073 33.6571 186.073 33.5318 186.073 33.3834V31.8113C186.073 31.6351 186.073 31.496 186.073 31.394C186.073 31.2827 186.069 31.1899 186.06 31.1157C186.06 31.0415 186.055 30.9766 186.046 30.9209C186.046 30.856 186.042 30.7818 186.033 30.6983C186.014 30.6056 185.986 30.5174 185.95 30.434C185.914 30.3505 185.882 30.2949 185.855 30.2671C185.763 30.1464 185.649 30.0769 185.512 30.0584C185.376 30.0398 185.234 30.0305 185.088 30.0305L185.033 29.9749V29.5018L185.088 29.4601H185.786C185.995 29.4601 186.219 29.4601 186.456 29.4601C186.694 29.4508 186.903 29.4323 187.086 29.4044L187.565 29.3349L187.647 29.5992C187.629 29.6364 187.611 29.6966 187.592 29.7801C187.583 29.8543 187.574 29.9377 187.565 30.0305C187.565 30.114 187.56 30.2021 187.551 30.2949C187.551 30.3784 187.551 30.4479 187.551 30.5035C187.551 30.5777 187.547 30.6473 187.537 30.7122C187.537 30.7679 187.537 30.8374 187.537 30.9209C187.537 30.9951 187.533 31.0925 187.524 31.2131C187.524 31.3337 187.524 31.4821 187.524 31.6583V33.2164C187.524 33.402 187.524 33.555 187.524 33.6756C187.533 33.7869 187.537 33.8843 187.537 33.9677C187.547 34.0512 187.551 34.1301 187.551 34.2043C187.56 34.2692 187.569 34.3434 187.578 34.4268C187.597 34.6216 187.615 34.7701 187.634 34.8721C187.661 34.9648 187.711 35.0436 187.784 35.1085C187.857 35.1827 187.957 35.2291 188.085 35.2477C188.221 35.257 188.358 35.2616 188.495 35.2616L188.564 35.3311L188.591 35.7903L188.564 35.8459ZM185.786 27.262C185.786 27.1507 185.809 27.0394 185.855 26.9281C185.9 26.8167 185.964 26.7194 186.046 26.6359C186.128 26.5431 186.219 26.4736 186.319 26.4272C186.429 26.3716 186.543 26.3438 186.662 26.3438C186.89 26.3438 187.095 26.4411 187.278 26.6359C187.469 26.8214 187.565 27.0301 187.565 27.262C187.565 27.3825 187.537 27.4984 187.483 27.6097C187.438 27.7118 187.369 27.8045 187.278 27.8881C187.195 27.9715 187.099 28.0364 186.99 28.0828C186.881 28.1291 186.771 28.1524 186.662 28.1524C186.424 28.1524 186.219 28.0642 186.046 27.8881C185.873 27.7118 185.786 27.5031 185.786 27.262Z" fill="#0F0A44"/>
<path id="Vector_27" d="M194.512 31.2944L194.458 31.2526C194.458 31.0393 194.394 30.8677 194.266 30.7378C194.148 30.5987 194.002 30.4921 193.829 30.4178C193.655 30.3437 193.468 30.2927 193.267 30.2648C193.076 30.237 192.907 30.2231 192.761 30.2231C192.433 30.2231 192.145 30.288 191.899 30.4178C191.653 30.5477 191.452 30.7193 191.297 30.9326C191.142 31.1459 191.023 31.3918 190.941 31.67C190.868 31.9482 190.832 32.2358 190.832 32.5325C190.832 32.8479 190.872 33.1493 190.955 33.4368C191.046 33.7244 191.178 33.9795 191.351 34.2021C191.525 34.4246 191.744 34.6055 192.008 34.7446C192.282 34.8745 192.601 34.9394 192.966 34.9394C193.276 34.9394 193.605 34.9069 193.951 34.842C194.298 34.7771 194.609 34.6705 194.882 34.522L195.115 34.8559L194.909 35.2455C194.809 35.3197 194.677 35.3985 194.512 35.482C194.357 35.5561 194.18 35.6304 193.979 35.7046C193.778 35.7695 193.559 35.8251 193.322 35.8715C193.094 35.9179 192.866 35.9411 192.638 35.9411C192.19 35.9411 191.762 35.8622 191.351 35.7046C190.95 35.5376 190.594 35.3104 190.284 35.0228C189.983 34.7261 189.741 34.3736 189.559 33.9655C189.377 33.5481 189.285 33.0891 189.285 32.5882C189.285 32.0781 189.377 31.6143 189.559 31.1969C189.741 30.7796 189.993 30.4225 190.312 30.1257C190.631 29.8289 191 29.597 191.42 29.4301C191.849 29.2631 192.305 29.1797 192.788 29.1797C193.008 29.1797 193.226 29.1982 193.445 29.2353C193.673 29.2631 193.888 29.3002 194.088 29.3466C194.298 29.393 194.485 29.4486 194.649 29.5135C194.814 29.5692 194.946 29.6248 195.046 29.6805L195.087 29.8057L194.937 31.2944H194.512Z" fill="#0F0A44"/>
<path id="Vector_28" d="M199.534 35.8459C199.471 35.8459 199.374 35.8413 199.247 35.832C199.119 35.8227 198.983 35.8134 198.836 35.8042C198.69 35.8042 198.554 35.7995 198.426 35.7903C198.299 35.7903 198.202 35.7903 198.139 35.7903H197.4C197.335 35.7903 197.236 35.7903 197.099 35.7903C196.971 35.7995 196.834 35.8042 196.688 35.8042C196.552 35.8134 196.415 35.8227 196.278 35.832C196.15 35.8413 196.054 35.8459 195.99 35.8459L195.977 35.7903L196.004 35.3172L196.045 35.2616C196.182 35.2616 196.323 35.257 196.469 35.2477C196.615 35.2291 196.725 35.1827 196.797 35.1085C196.861 35.0436 196.907 34.9601 196.934 34.8581C196.962 34.7561 196.984 34.6124 197.002 34.4268C197.012 34.3619 197.016 34.297 197.016 34.2321C197.026 34.1671 197.03 34.0976 197.03 34.0234C197.04 33.9492 197.044 33.8611 197.044 33.7591C197.044 33.6571 197.044 33.5318 197.044 33.3834V31.8113C197.044 31.6351 197.044 31.496 197.044 31.394C197.044 31.2827 197.04 31.1899 197.03 31.1157C197.03 31.0415 197.026 30.9766 197.016 30.9209C197.016 30.856 197.012 30.7818 197.002 30.6983C196.984 30.6056 196.957 30.5174 196.921 30.434C196.884 30.3505 196.852 30.2949 196.825 30.2671C196.734 30.1464 196.62 30.0769 196.483 30.0584C196.346 30.0398 196.204 30.0305 196.058 30.0305L196.004 29.9749V29.5018L196.058 29.4601H196.757C196.966 29.4601 197.19 29.4601 197.427 29.4601C197.665 29.4508 197.874 29.4323 198.056 29.4044L198.535 29.3349L198.618 29.5992C198.599 29.6364 198.581 29.6966 198.563 29.7801C198.554 29.8543 198.544 29.9377 198.535 30.0305C198.535 30.114 198.531 30.2021 198.522 30.2949C198.522 30.3784 198.522 30.4479 198.522 30.5035C198.522 30.5777 198.517 30.6473 198.508 30.7122C198.508 30.7679 198.508 30.8374 198.508 30.9209C198.508 30.9951 198.504 31.0925 198.495 31.2131C198.495 31.3337 198.495 31.4821 198.495 31.6583V33.2164C198.495 33.402 198.495 33.555 198.495 33.6756C198.504 33.7869 198.508 33.8843 198.508 33.9677C198.517 34.0512 198.522 34.1301 198.522 34.2043C198.531 34.2692 198.54 34.3434 198.549 34.4268C198.567 34.6216 198.585 34.7701 198.603 34.8721C198.631 34.9648 198.681 35.0436 198.754 35.1085C198.827 35.1827 198.927 35.2291 199.055 35.2477C199.192 35.257 199.329 35.2616 199.466 35.2616L199.534 35.3311L199.561 35.7903L199.534 35.8459ZM196.757 27.262C196.757 27.1507 196.779 27.0394 196.825 26.9281C196.871 26.8167 196.934 26.7194 197.016 26.6359C197.099 26.5431 197.19 26.4736 197.29 26.4272C197.4 26.3716 197.514 26.3438 197.632 26.3438C197.86 26.3438 198.066 26.4411 198.248 26.6359C198.439 26.8214 198.535 27.0301 198.535 27.262C198.535 27.3825 198.508 27.4984 198.453 27.6097C198.408 27.7118 198.339 27.8045 198.248 27.8881C198.166 27.9715 198.07 28.0364 197.96 28.0828C197.851 28.1291 197.742 28.1524 197.632 28.1524C197.395 28.1524 197.19 28.0642 197.016 27.8881C196.843 27.7118 196.757 27.5031 196.757 27.262Z" fill="#0F0A44"/>
<path id="Vector_29" d="M202.705 30.5987C202.916 30.1906 203.202 29.8521 203.568 29.5832C203.933 29.3142 204.362 29.1797 204.854 29.1797C205.136 29.1797 205.415 29.2168 205.689 29.291C205.962 29.3651 206.208 29.4811 206.428 29.6388C206.656 29.7965 206.842 30.0005 206.988 30.2509C207.144 30.4921 207.244 30.7796 207.29 31.1135C207.317 31.3546 207.33 31.6097 207.33 31.8787C207.34 32.1476 207.344 32.4166 207.344 32.6856C207.353 33.0009 207.358 33.2931 207.358 33.5621C207.358 33.8218 207.358 34.1093 207.358 34.4246C207.358 34.638 207.381 34.8003 207.427 34.9115C207.481 35.0136 207.545 35.0831 207.618 35.1202C207.719 35.1759 207.823 35.213 207.933 35.2315C208.051 35.2501 208.184 35.2594 208.33 35.2594L208.371 35.315L208.398 35.7881L208.371 35.8437C208.179 35.8251 207.964 35.8112 207.728 35.802C207.499 35.7927 207.276 35.7881 207.057 35.7881C206.838 35.7881 206.619 35.7881 206.4 35.7881C206.181 35.7973 205.976 35.8112 205.785 35.8298L205.689 35.5515C205.716 35.431 205.739 35.2501 205.757 35.0089C205.785 34.7678 205.803 34.573 205.812 34.4246C205.83 34.0721 205.844 33.7429 205.853 33.4368C205.862 33.1308 205.866 32.8571 205.866 32.616C205.866 32.4027 205.862 32.1708 205.853 31.9204C205.844 31.67 205.812 31.452 205.757 31.2665C205.684 30.9697 205.534 30.7518 205.306 30.6126C205.086 30.4642 204.831 30.3901 204.539 30.3901C204.265 30.3901 204.014 30.4411 203.787 30.5431C203.559 30.6451 203.362 30.7703 203.198 30.9187C203.043 31.0578 202.92 31.2062 202.829 31.3639C202.737 31.5216 202.692 31.6607 202.692 31.7813V33.2142C202.692 33.3998 202.692 33.5528 202.692 33.6734C202.692 33.7847 202.692 33.8821 202.692 33.9655C202.701 34.049 202.705 34.1278 202.705 34.2021C202.714 34.267 202.724 34.3411 202.733 34.4246C202.751 34.6194 202.788 34.7678 202.842 34.8698C202.906 34.9626 202.975 35.0414 203.047 35.1063C203.121 35.1805 203.207 35.2269 203.308 35.2455C203.408 35.2548 203.526 35.2594 203.663 35.2594L203.732 35.3289L203.759 35.7881L203.732 35.8437C203.668 35.8437 203.572 35.8391 203.445 35.8298C203.317 35.8205 203.18 35.8112 203.034 35.802C202.888 35.802 202.751 35.7973 202.624 35.7881C202.496 35.7881 202.4 35.7881 202.336 35.7881H201.583C201.52 35.7881 201.419 35.7881 201.282 35.7881C201.154 35.7973 201.018 35.802 200.872 35.802C200.735 35.8112 200.598 35.8205 200.461 35.8298C200.333 35.8391 200.238 35.8437 200.174 35.8437L200.16 35.7881L200.187 35.315L200.229 35.2594C200.375 35.2594 200.502 35.2548 200.612 35.2455C200.731 35.2269 200.826 35.1805 200.899 35.1063C200.963 35.0414 201.023 34.9579 201.077 34.8559C201.132 34.7539 201.169 34.6101 201.187 34.4246C201.196 34.3597 201.2 34.2948 201.2 34.2298C201.21 34.1649 201.214 34.0954 201.214 34.0211C201.223 33.947 201.228 33.8588 201.228 33.7568C201.228 33.6548 201.228 33.5296 201.228 33.3812V31.9482C201.228 31.772 201.228 31.6236 201.228 31.503C201.228 31.3825 201.223 31.2758 201.214 31.1831C201.214 31.0903 201.21 31.0068 201.2 30.9326C201.2 30.8585 201.196 30.7796 201.187 30.6961C201.169 30.6034 201.141 30.5152 201.104 30.4318C201.068 30.3483 201.036 30.2927 201.009 30.2648C200.918 30.1442 200.803 30.0747 200.666 30.0561C200.53 30.0376 200.389 30.0283 200.243 30.0283L200.187 29.9727V29.4996L200.243 29.4579H200.94C201.15 29.4579 201.374 29.4579 201.611 29.4579C201.857 29.4486 202.071 29.4301 202.254 29.4022L202.733 29.3327L202.815 29.597C202.742 29.6991 202.696 29.8428 202.678 30.0283C202.669 30.2045 202.665 30.3854 202.665 30.5709L202.705 30.5987Z" fill="#0F0A44"/>
<path id="Vector_30" d="M210.392 33.8978C209.927 33.7122 209.589 33.4201 209.379 33.0212C209.17 32.6225 209.064 32.1819 209.064 31.6995C209.064 31.3564 209.124 31.0318 209.242 30.7257C209.361 30.4196 209.53 30.1553 209.749 29.9327C209.977 29.7009 210.246 29.52 210.556 29.3902C210.876 29.2603 211.236 29.1953 211.638 29.1953C211.874 29.1953 212.107 29.2185 212.335 29.2649C212.572 29.3113 212.778 29.3762 212.951 29.4597C213.334 29.4504 213.689 29.4272 214.018 29.3902C214.356 29.353 214.671 29.2928 214.962 29.2092L215.031 29.2649L214.935 30.3083L214.867 30.3779L213.84 30.2666L213.826 30.3083C213.972 30.4753 214.087 30.6978 214.168 30.9762C214.251 31.2544 214.292 31.5187 214.292 31.7692C214.292 32.0752 214.233 32.3674 214.114 32.6456C214.004 32.9238 213.84 33.1697 213.621 33.383C213.403 33.587 213.129 33.754 212.8 33.8839C212.472 34.0044 212.093 34.0647 211.665 34.0647C211.61 34.0647 211.537 34.0647 211.445 34.0647C211.364 34.0554 211.299 34.0508 211.254 34.0508C211.099 34.1157 210.98 34.2039 210.898 34.3151C210.825 34.4264 210.789 34.5192 210.789 34.5934C210.789 34.7974 211.004 34.9272 211.432 34.9829L212.76 35.122C213.06 35.1592 213.338 35.2241 213.594 35.3168C213.858 35.4095 214.087 35.5348 214.278 35.6925C214.479 35.8409 214.634 36.0217 214.743 36.235C214.853 36.4576 214.908 36.7127 214.908 37.0002C214.908 37.2692 214.849 37.5382 214.73 37.8072C214.611 38.0854 214.433 38.3312 214.196 38.5445C213.959 38.7485 213.63 38.9155 213.211 39.0453C212.791 39.1752 212.308 39.2401 211.76 39.2401C211.268 39.2401 210.839 39.1845 210.474 39.0732C210.118 38.9712 209.817 38.8274 209.571 38.6419C209.334 38.4656 209.156 38.2616 209.037 38.0297C208.918 37.8072 208.859 37.5752 208.859 37.3341C208.859 36.9445 208.983 36.5968 209.229 36.2907C209.484 35.9939 209.808 35.7852 210.2 35.6646L210.214 35.6229C209.995 35.5394 209.817 35.4374 209.68 35.3168C209.552 35.1869 209.489 35.0293 209.489 34.8438C209.489 34.6026 209.585 34.4079 209.776 34.2595C209.968 34.1111 210.173 34.009 210.392 33.9534V33.8978ZM211.692 33.1047C211.874 33.1047 212.034 33.0676 212.171 32.9935C212.317 32.9192 212.44 32.8219 212.54 32.7013C212.641 32.5807 212.713 32.4415 212.76 32.2839C212.814 32.1169 212.841 31.9454 212.841 31.7692C212.841 31.5836 212.814 31.3982 212.76 31.2126C212.704 31.0272 212.627 30.8602 212.527 30.7118C212.426 30.5542 212.299 30.4289 212.144 30.3362C211.989 30.2342 211.811 30.1832 211.61 30.1832C211.418 30.1832 211.254 30.2295 211.117 30.3222C210.98 30.4057 210.862 30.517 210.761 30.6562C210.67 30.7953 210.602 30.9529 210.556 31.1292C210.51 31.3054 210.488 31.477 210.488 31.6439C210.488 31.8202 210.51 31.9964 210.556 32.1726C210.611 32.3489 210.689 32.5065 210.789 32.6456C210.889 32.7848 211.013 32.8961 211.158 32.9795C211.313 33.063 211.492 33.1047 211.692 33.1047ZM211.254 36.0959C211.054 36.1052 210.88 36.1423 210.734 36.2072C210.588 36.2722 210.465 36.3556 210.364 36.4576C210.264 36.5689 210.186 36.6849 210.132 36.8055C210.087 36.9353 210.064 37.0605 210.064 37.1811C210.064 37.45 210.224 37.668 210.543 37.8349C210.862 38.0112 211.295 38.0993 211.843 38.0993C212.335 38.0993 212.751 38.0158 213.088 37.8489C213.425 37.6912 213.594 37.4547 213.594 37.1393C213.594 36.9631 213.553 36.8193 213.471 36.7081C213.389 36.5968 213.279 36.504 213.142 36.4298C213.006 36.3649 212.85 36.3139 212.677 36.2768C212.513 36.2397 212.344 36.2119 212.171 36.1933L211.254 36.0959Z" fill="#0F0A44"/>
</g>
<defs>
<filter id="filter0_d_1728_383" x="23.4004" y="2.07812" width="14.5215" height="14.6055" filterUnits="userSpaceOnUse" color-interpolation-filters="sRGB">
<feFlood flood-opacity="0" result="BackgroundImageFix"/>
<feColorMatrix in="SourceAlpha" type="matrix" values="0 0 0 0 0 0 0 0 0 0 0 0 0 0 0 0 0 0 127 0" result="hardAlpha"/>
<feOffset dy="1"/>
<feGaussianBlur stdDeviation="1"/>
<feColorMatrix type="matrix" values="0 0 0 0 0 0 0 0 0 0 0 0 0 0 0 0 0 0 0.15 0"/>
<feBlend mode="normal" in2="BackgroundImageFix" result="effect1_dropShadow_1728_383"/>
<feBlend mode="normal" in="SourceGraphic" in2="effect1_dropShadow_1728_383" result="shape"/>
</filter>
<clipPath id="clip0_1728_383">
<rect width="217.143" height="40" fill="white"/>
</clipPath>
</defs>
</svg>
