<svg width="84" height="22" viewBox="0 0 84 22" fill="none" xmlns="http://www.w3.org/2000/svg">
<path d="M18.998 14.582L25.0712 20.6024C25.509 21.0363 26.218 21.0363 26.6558 20.6024C26.8592 20.4007 26.995 20.1318 26.995 19.8322V3.10938L18.998 14.582Z" fill="#F5AF19"/>
<path d="M18.9285 1H1.11598C0.505583 1 0 1.5012 0 2.1063V19.8316C0 20.4367 0.505583 20.9379 1.11598 20.9379C1.35028 20.9379 1.55374 20.8706 1.75721 20.7362C1.82503 20.7056 1.85586 20.669 1.92368 20.6017L8.33596 14.245L11.4373 11.1707L13.5275 9.09858L21.6229 1H18.9224H18.9285Z" fill="url(#paint0_linear_1805_1001)"/>
<path d="M26.9577 2.1063C26.9577 2.03907 26.9577 1.97183 26.9269 1.9046C26.8591 1.36673 26.3843 1 25.8479 1H22.204L13.7694 9.36142L8.50391 14.5812L12.6226 20.5039C12.9617 21.0051 13.6707 21.1396 14.1763 20.7728C14.275 20.7056 14.3798 20.6079 14.4476 20.5039V20.4734L18.7635 14.2879L26.7912 2.67474L26.9577 2.44247V2.1063Z" fill="url(#paint1_linear_1805_1001)"/>
<path d="M52.7853 10.1169L52.7853 10.117C52.0314 10.8924 51.1114 11.2783 50.0094 11.2783C48.9077 11.2783 47.9879 10.8926 47.2341 10.1176C46.4787 9.32958 46.1015 8.37865 46.1015 7.25014C46.1015 6.12137 46.4789 5.17025 47.2346 4.38209C47.9888 3.59557 48.9085 3.20482 50.0094 3.20482C51.1102 3.20482 52.0299 3.59557 52.7841 4.38209L52.7853 4.38336C53.5521 5.17175 53.9344 6.12246 53.9344 7.25014C53.9344 8.37782 53.5521 9.32854 52.7853 10.1169ZM66.5646 10.1169L66.5646 10.117C65.8107 10.8924 64.8906 11.2783 63.7886 11.2783C62.687 11.2783 61.7671 10.8926 61.0134 10.1176C60.2579 9.32958 59.8808 8.37865 59.8808 7.25014C59.8808 6.12137 60.2581 5.17025 61.0139 4.38209C61.7681 3.59557 62.6878 3.20482 63.7886 3.20482C64.8895 3.20482 65.8092 3.59557 66.5634 4.38209L66.5646 4.38336C67.3314 5.17175 67.7137 6.12246 67.7137 7.25014C67.7137 8.37782 67.3314 9.32854 66.5646 10.1169ZM40.8491 13.4326C41.5575 13.4326 42.1314 12.8579 42.1304 12.1495L42.1167 2.58912C42.1156 1.82108 41.4927 1.19905 40.7247 1.19905C40.2314 1.19905 39.775 1.46007 39.5249 1.88519L35.4935 8.73706L31.3834 1.87702C31.1314 1.45645 30.6771 1.19905 30.1869 1.19905C29.4165 1.19905 28.792 1.82355 28.792 2.59391V12.1434C28.792 12.8554 29.3692 13.4326 30.0813 13.4326C30.7933 13.4326 31.3705 12.8554 31.3705 12.1434V6.39733L34.5106 11.558C34.7122 11.8894 35.0721 12.0916 35.4599 12.0916C35.8506 12.0916 36.2126 11.8865 36.4133 11.5514L39.5553 6.30562L39.5679 12.1541C39.5694 12.8607 40.1426 13.4326 40.8491 13.4326ZM81.4951 1.20223C80.7599 1.20223 80.1639 1.79821 80.1639 2.5334V8.69462L74.5024 1.74242C74.2241 1.40062 73.8067 1.20223 73.3659 1.20223C72.5564 1.20223 71.9001 1.85846 71.9001 2.66796V12.1046C71.9001 12.8398 72.4961 13.4358 73.2313 13.4358C73.9665 13.4358 74.5625 12.8398 74.5625 12.1046V5.9434L80.224 12.8956C80.5023 13.2374 80.9197 13.4358 81.3605 13.4358C82.17 13.4358 82.8262 12.7796 82.8262 11.9701V2.5334C82.8262 1.79821 82.2303 1.20223 81.4951 1.20223ZM45.5871 2.76261C44.3831 3.99046 43.7803 5.49136 43.7803 7.25014C43.7803 8.99797 44.3834 10.493 45.5871 11.7205C46.7916 12.9489 48.2708 13.5651 50.0094 13.5651C51.7586 13.5651 53.2436 12.9494 54.4484 11.721C55.6635 10.4937 56.2728 8.99857 56.2728 7.25014C56.2728 5.4908 55.6639 3.98977 54.4484 2.76217C53.2436 1.53371 51.7587 0.917969 50.0094 0.917969C48.2708 0.917969 46.7916 1.53423 45.5871 2.76261ZM59.3664 2.76261C58.1623 3.99046 57.5595 5.49136 57.5595 7.25014C57.5595 8.99797 58.1627 10.493 59.3664 11.7205C60.5709 12.9489 62.0501 13.5651 63.7886 13.5651C65.538 13.5651 67.023 12.9493 68.2278 11.7208C69.4428 10.4936 70.0521 8.99847 70.0521 7.25014C70.0521 5.4908 69.4431 3.98977 68.2277 2.76217C67.0229 1.53371 65.5379 0.917969 63.7886 0.917969C62.0501 0.917969 60.5709 1.53423 59.3664 2.76261Z" fill="#0177FB" stroke="#0177FB" stroke-width="0.5"/>
<path d="M31.2171 16.9726L30.4838 19.0302H31.9504L31.2171 16.9726ZM32.5912 20.7247L32.2067 19.7066H30.2274L29.8359 20.7247C29.7979 20.8196 29.7291 20.8884 29.6294 20.9311C29.5345 20.9739 29.4348 20.9786 29.3304 20.9454C29.2402 20.9122 29.1737 20.8481 29.131 20.7532C29.093 20.6535 29.093 20.5538 29.131 20.4541L30.676 16.3603C30.7709 16.1135 30.9442 15.9901 31.1957 15.9901H31.2384C31.4852 15.9901 31.6561 16.1135 31.751 16.3603L33.296 20.4541C33.334 20.5538 33.3316 20.6535 33.2889 20.7532C33.2509 20.8481 33.1868 20.9122 33.0967 20.9454C32.9922 20.9786 32.8902 20.9739 32.7905 20.9311C32.6956 20.8884 32.6291 20.8196 32.5912 20.7247Z" fill="#F5AF19"/>
<path d="M48.1256 16.7234H46.9295V18.4393H48.0971C48.3534 18.4393 48.548 18.3562 48.6809 18.1901C48.8138 18.0192 48.8802 17.8175 48.8802 17.5849C48.8802 17.3523 48.8162 17.1506 48.688 16.9797C48.5599 16.8089 48.3724 16.7234 48.1256 16.7234ZM46.9295 19.1299V20.5823C46.9295 20.6867 46.8915 20.7769 46.8155 20.8528C46.7396 20.9288 46.6471 20.9667 46.5379 20.9667C46.4382 20.9667 46.3528 20.9288 46.2816 20.8528C46.2104 20.7769 46.1748 20.6867 46.1748 20.5823V16.4386C46.1748 16.3105 46.2104 16.2108 46.2816 16.1396C46.3575 16.0637 46.4548 16.0257 46.5735 16.0257H48.1398C48.6334 16.0257 49.006 16.1776 49.2576 16.4814C49.5091 16.7851 49.6349 17.153 49.6349 17.5849C49.6349 18.0168 49.5091 18.3823 49.2576 18.6813C49.0108 18.9804 48.6382 19.1299 48.1398 19.1299H46.9295Z" fill="#F5AF19"/>
<path d="M64.5466 16.7234H63.3505V18.4393H64.5182C64.7745 18.4393 64.9691 18.3562 65.102 18.1901C65.2349 18.0192 65.3013 17.8175 65.3013 17.5849C65.3013 17.3523 65.2372 17.1506 65.1091 16.9797C64.9809 16.8089 64.7934 16.7234 64.5466 16.7234ZM63.3505 19.1299V20.5823C63.3505 20.6867 63.3126 20.7769 63.2366 20.8528C63.1607 20.9288 63.0681 20.9667 62.959 20.9667C62.8593 20.9667 62.7738 20.9288 62.7026 20.8528C62.6315 20.7769 62.5959 20.6867 62.5959 20.5823V16.4386C62.5959 16.3105 62.6315 16.2108 62.7026 16.1396C62.7786 16.0637 62.8759 16.0257 62.9946 16.0257H64.5609C65.0545 16.0257 65.4271 16.1776 65.6787 16.4814C65.9302 16.7851 66.056 17.153 66.056 17.5849C66.056 18.0168 65.9302 18.3823 65.6787 18.6813C65.4318 18.9804 65.0592 19.1299 64.5609 19.1299H63.3505Z" fill="#F5AF19"/>
<path d="M78.7962 19.9558C78.763 19.8561 78.7677 19.7588 78.8105 19.6638C78.8579 19.5642 78.9291 19.5025 79.024 19.4787C79.2614 19.4123 79.4251 19.493 79.5153 19.7208C79.7099 20.1148 80.0208 20.3117 80.448 20.3117C80.7233 20.3117 80.9392 20.2477 81.0959 20.1195C81.2525 19.9913 81.345 19.8323 81.3735 19.6425C81.3973 19.239 81.1386 18.9732 80.5975 18.8451L79.9781 18.6885C79.1664 18.4701 78.7606 18.0311 78.7606 17.3713C78.7606 16.9631 78.9196 16.6285 79.2376 16.3675C79.5556 16.1017 79.9354 15.9688 80.3768 15.9688C81.1267 15.9688 81.618 16.2725 81.8505 16.8801C81.8885 16.975 81.8861 17.0699 81.8434 17.1649C81.8055 17.255 81.7414 17.3144 81.6512 17.3428C81.4471 17.4093 81.2905 17.3357 81.1813 17.1221C81.0104 16.8279 80.7375 16.6807 80.3625 16.6807C80.13 16.6807 79.9306 16.7448 79.7645 16.8729C79.5984 16.9964 79.5153 17.1577 79.5153 17.3571C79.5153 17.6703 79.7336 17.8839 80.1703 17.9978L80.7968 18.1616C81.281 18.2898 81.6322 18.4867 81.8505 18.7525C82.0689 19.0136 82.1591 19.3245 82.1211 19.6852C82.0831 20.0744 81.9099 20.3924 81.6014 20.6392C81.2976 20.8813 80.9131 21.0023 80.448 21.0023C80.0493 21.0023 79.7004 20.905 79.4014 20.7104C79.1071 20.5111 78.9054 20.2595 78.7962 19.9558Z" fill="#F5AF19"/>
<defs>
<linearGradient id="paint0_linear_1805_1001" x1="0" y1="1" x2="20.7738" y2="21.7865" gradientUnits="userSpaceOnUse">
<stop offset="0.0001" stop-color="#46A6FE"/>
<stop offset="1" stop-color="#062AEA"/>
</linearGradient>
<linearGradient id="paint1_linear_1805_1001" x1="8.50391" y1="1" x2="29.059" y2="18.5152" gradientUnits="userSpaceOnUse">
<stop offset="0.0001" stop-color="#46A6FE"/>
<stop offset="1" stop-color="#062AEA"/>
</linearGradient>
</defs>
</svg>
